<?xml version="1.0" encoding="UTF-8"?>
<svg version="1.1" xmlns="http://www.w3.org/2000/svg" width="2100" height="2100">
<path d="M0 0 C2.64678345 0.27116382 5.29446414 0.53214986 7.94232178 0.79260254 C76.94468034 7.66336224 145.36554459 20.92195592 211.32330322 42.54217529 C213.56926855 43.27806566 215.81702233 44.00831704 218.06488037 44.73840332 C252.32893437 55.90836596 285.7632856 69.19971993 318.50335693 84.25646973 C320.31215656 85.08019885 322.12095728 85.90392558 323.92980957 86.72753906 C349.48276892 98.38292382 374.36067507 111.04617399 398.48138428 125.4630127 C401.58573501 127.30535883 404.70788664 129.11389272 407.83538818 130.91662598 C435.02934505 146.67319009 461.25608828 164.36021246 486.69085693 182.81896973 C487.44076904 183.36214844 488.19068115 183.90532715 488.96331787 184.46496582 C495.57499911 189.27333289 502.0645299 194.21912868 508.50335693 199.25646973 C509.6541916 200.14866388 510.80523926 201.04058336 511.95648193 201.93225098 C518.91691149 207.34154299 525.71232544 212.90875755 532.41351318 218.63537598 C535.27913387 221.07950307 538.19741216 223.45342706 541.12835693 225.81896973 C545.89286501 229.69576742 550.43979583 233.77118505 554.96038818 237.92834473 C557.07402748 239.86341235 559.20995542 241.75855269 561.37835693 243.63146973 C569.41908009 250.62987692 577.22744514 257.88799625 584.70257568 265.48693848 C586.45161839 267.20562903 588.25896191 268.79543563 590.12835693 270.38146973 C598.58013115 277.66171088 606.53245631 285.75416443 613.73382568 294.26818848 C616.05108336 296.87190626 618.52357404 299.30944651 621.00335693 301.75646973 C624.68557297 305.39484986 628.21054314 309.10239672 631.56976318 313.04162598 C633.60240093 315.36992013 635.69751097 317.62823706 637.80706787 319.88659668 C642.87540378 325.31324409 647.70340287 330.84587712 652.35491943 336.63928223 C654.51847465 339.27488586 656.76725254 341.80070348 659.06585693 344.31896973 C663.43892716 349.13535807 667.50013979 354.13048049 671.50335693 359.25646973 C672.543675 360.57812093 673.58404372 361.89973226 674.62445068 363.22131348 C707.4962604 405.10613537 737.03338033 449.4910376 762.50335693 496.25646973 C763.03042236 497.22036621 763.55748779 498.1842627 764.1005249 499.17736816 C777.80431554 524.27035771 790.23463636 549.69549791 801.69419861 575.87690735 C803.57245616 580.16187578 805.48436483 584.42831776 807.44085693 588.67834473 C842.97665349 666.32510077 862.58871291 752.22828465 880.50335693 916.25646973 C880.54392212 917.13067566 880.5844873 918.00488159 880.62628174 918.90557861 C880.84244974 923.78320081 881.0036212 928.65787595 881.08599854 933.53964233 C881.11361598 934.98500168 881.15238802 936.43020398 881.20391846 937.87490845 C881.56734918 948.81029096 878.9985502 956.09011047 873.50335693 965.25646973 C872.84335693 965.25646973 872.18335693 965.25646973 871.50335693 965.25646973 C870.40966891 969.38475691 870.67635447 972.56368786 871.37835693 976.75646973 C874.66252198 998.23668438 873.81626859 1019.69404565 871.81585693 1041.25646973 C871.72688141 1042.24270325 871.63790588 1043.22893677 871.54623413 1044.24505615 C864.95076387 1117.09784046 850.05813205 1188.68408666 827.50335693 1258.25646973 C827.1797821 1259.25459686 827.1797821 1259.25459686 826.84967041 1260.27288818 C813.20853717 1302.1915352 795.988284 1342.74575285 776.50335693 1382.25646973 C776.13049561 1383.01733887 775.75763428 1383.77820801 775.37347412 1384.56213379 C773.12512138 1389.14859824 770.8253063 1393.70689391 768.50335693 1398.25646973 C768.05057373 1399.14946777 767.59779053 1400.04246582 767.13128662 1400.96252441 C759.12207743 1416.72725743 750.57564871 1432.08081466 741.50335693 1447.25646973 C740.68278809 1448.64285645 740.68278809 1448.64285645 739.84564209 1450.05725098 C722.18445593 1479.88456328 702.52905959 1508.70477302 681.50335693 1536.25646973 C680.66595461 1537.36181521 679.82870902 1538.46727945 678.99163818 1539.57287598 C672.8350592 1547.67181923 666.4356801 1555.56533231 659.99163818 1563.43615723 C658.68926315 1565.02908837 657.39269661 1566.62676493 656.09710693 1568.22521973 C647.44376002 1578.88513984 638.51838668 1589.28525942 629.17132568 1599.34240723 C627.10151305 1601.60313962 625.07127563 1603.88357753 623.05804443 1606.19396973 C612.25764529 1618.57431131 600.66748245 1630.19619537 589.06585693 1641.81896973 C588.40842499 1642.47898987 587.75099304 1643.13901001 587.07363892 1643.81903076 C574.38360256 1656.54840289 574.38360256 1656.54840289 568.22821045 1661.7767334 C565.11276146 1664.44944908 562.16937618 1667.30831702 559.19085693 1670.13146973 C553.96387033 1675.05140746 548.64472832 1679.71021655 543.03460693 1684.19006348 C540.5019754 1686.25759755 538.09604533 1688.41760314 535.69085693 1690.63146973 C531.31634867 1694.61330559 526.75806619 1698.27389056 522.08685303 1701.89538574 C518.27021125 1704.85692456 514.51123976 1707.87606802 510.78363037 1710.94885254 C502.03461505 1718.15213612 493.00564349 1724.9141792 483.83099365 1731.56408691 C481.66262665 1733.14066758 479.50530445 1734.73104912 477.35101318 1736.32678223 C447.47243982 1758.34294559 415.8298772 1778.07343326 383.50335693 1796.25646973 C382.56717529 1796.78385742 381.63099365 1797.31124512 380.66644287 1797.85461426 C304.53809484 1840.48812106 222.84365002 1871.46393119 10.37835693 1913.50646973 C9.60453674 1913.58378326 8.83071655 1913.6610968 8.03344727 1913.74075317 C2.19517882 1914.31484879 -3.64805324 1914.80055938 -9.49664307 1915.25646973 C-11.12630005 1915.38727432 -11.12630005 1915.38727432 -12.78887939 1915.52072144 C-35.81417487 1917.32078516 -58.77317057 1917.61968002 -81.86039734 1917.57452774 C-84.78948013 1917.56888724 -87.71855714 1917.56606692 -90.64764404 1917.56344604 C-117.53204344 1917.52846877 -144.29720785 1917.31937399 -171.06085205 1914.50970459 C-173.64071131 1914.2414918 -176.22173815 1913.9878911 -178.80328369 1913.7364502 C-267.70320023 1904.99956294 -355.79206501 1884.67463732 -563.49664307 1791.25646973 C-565.36071892 1790.17096238 -567.22531636 1789.0863503 -569.09039307 1788.00256348 C-602.1409768 1768.72234443 -634.0429854 1747.41965739 -664.49664307 1724.25646973 C-665.05802979 1723.8315625 -665.6194165 1723.40665527 -666.19781494 1722.96887207 C-674.84880174 1716.41831994 -683.28119014 1709.61806316 -691.67633057 1702.74475098 C-693.26926171 1701.44237594 -694.86693827 1700.14580941 -696.46539307 1698.85021973 C-707.12531318 1690.19687281 -717.52543276 1681.27149948 -727.58258057 1671.92443848 C-729.84198006 1669.85584618 -732.12108903 1667.82696136 -734.43023682 1665.81506348 C-746.63414797 1655.16894569 -758.10172799 1643.75477277 -769.55914307 1632.31896973 C-770.19524506 1631.68545593 -770.83134705 1631.05194214 -771.48672485 1630.39923096 C-783.69458912 1618.23052158 -783.69458912 1618.23052158 -788.96807861 1612.03015137 C-791.8164022 1608.72507696 -794.86452683 1605.60389767 -797.87164307 1602.44396973 C-802.97760544 1597.04215488 -807.83398155 1591.56774995 -812.46539307 1585.75256348 C-814.51880476 1583.22923642 -816.66852364 1580.837147 -818.87164307 1578.44396973 C-822.85347893 1574.06946147 -826.5140639 1569.51117898 -830.13555908 1564.83996582 C-833.0970979 1561.02332405 -836.11624136 1557.26435255 -839.18902588 1553.53674316 C-846.39230946 1544.78772784 -853.15435254 1535.75875628 -859.80426025 1526.58410645 C-861.38084092 1524.41573944 -862.97122246 1522.25841725 -864.56695557 1520.10412598 C-886.58311893 1490.22555262 -906.3136066 1458.58298999 -924.49664307 1426.25646973 C-925.02403076 1425.32028809 -925.55141846 1424.38410645 -926.0947876 1423.41955566 C-949.65088362 1381.3567086 -969.84476928 1337.49100099 -986.49664307 1292.25646973 C-986.73880554 1291.60067932 -986.98096802 1290.94488892 -987.23046875 1290.26922607 C-1016.12105273 1211.92368688 -1033.88889813 1130.69516642 -1042.37164307 1047.69396973 C-1042.48141479 1046.65107788 -1042.59118652 1045.60818604 -1042.70428467 1044.53369141 C-1043.90708579 1032.9704092 -1044.69413513 1021.48404558 -1044.75445557 1009.85412598 C-1044.76322723 1008.83991074 -1044.7719989 1007.8256955 -1044.78103638 1006.78074646 C-1044.73472311 997.31401072 -1042.79050343 988.80122548 -1039.98492432 979.79943848 C-1038.82951102 973.78204604 -1041.78583765 969.71622105 -1044.87164307 964.81896973 C-1045.67325367 963.52992817 -1046.47276548 962.23957887 -1047.27008057 960.94787598 C-1047.62505615 960.38270264 -1047.98003174 959.8175293 -1048.34576416 959.23522949 C-1051.22910604 954.27776536 -1052.87711046 950.69442535 -1052.89508057 944.88537598 C-1052.90128418 943.61387695 -1052.90748779 942.34237793 -1052.91387939 941.03234863 C-1052.90154197 939.62787262 -1052.88739885 938.22341155 -1052.87164307 936.81896973 C-1052.86732269 936.09006531 -1052.86300232 935.36116089 -1052.85855103 934.61016846 C-1052.24274058 843.94392322 -1035.85106843 752.52255792 -914.49664307 461.25646973 C-913.6523877 459.85993164 -913.6523877 459.85993164 -912.79107666 458.43518066 C-893.17357006 426.03184193 -871.68731035 394.26929963 -847.57867432 365.02209473 C-844.64943459 361.46431368 -841.81850337 357.83703346 -838.99664307 354.19396973 C-830.73118993 343.58164809 -821.76144078 333.56334966 -812.67633057 323.65100098 C-810.83419275 321.62729044 -809.03176169 319.58022694 -807.24664307 317.50646973 C-799.58001171 308.69257525 -791.524339 300.1757347 -783.19586182 291.98693848 C-781.5018921 290.26181529 -779.9362188 288.47419226 -778.37164307 286.63146973 C-771.07174141 278.15687125 -762.95416124 270.18206202 -754.41851807 262.95959473 C-752.00690375 260.8224731 -749.76125049 258.54852694 -747.49664307 256.25646973 C-743.98487757 252.70728816 -740.40655406 249.33678515 -736.61383057 246.09240723 C-734.09064851 243.90440803 -731.64109787 241.6435386 -729.18414307 239.38146973 C-724.74062657 235.32805619 -720.1706621 231.49463096 -715.48883057 227.72131348 C-712.69131946 225.41683631 -709.96534933 223.05190702 -707.24639893 220.65637207 C-700.02106206 214.29762399 -692.56367288 208.36064243 -684.87554932 202.57287598 C-681.91692238 200.34480689 -678.99066788 198.08239548 -676.08648682 195.78381348 C-666.94271641 188.55122044 -657.60520354 181.77452803 -647.93414307 175.26428223 C-644.14620734 172.71273129 -640.43733812 170.07073128 -636.74664307 167.38146973 C-606.07361246 145.21475147 -572.87303211 126.01448993 -539.49664307 108.25646973 C-538.4238208 107.68315918 -537.35099854 107.10984863 -536.2456665 106.51916504 C-461.15422705 66.5348535 -379.94670133 37.71679924 -292.49664307 18.25646973 C-291.78089111 18.09853943 -291.06513916 17.94060913 -290.32769775 17.77789307 C-252.94612047 9.56595364 -214.92599111 3.89721482 -176.81213379 0.46936035 C-174.51744113 0.25838194 -172.22462482 0.03269217 -169.93170166 -0.19665527 C-114.26981548 -5.67681934 -55.64349925 -5.70264251 0 0 Z " fill="#070606" transform="translate(1135.4966430664063,92.7435302734375)"/>
<path d="M0 0 C2.20502238 0.02156898 4.40956988 0.03118015 6.61468506 0.03375244 C80.51482037 0.20985962 155.96857192 12.77765376 227.40228271 31.02349854 C228.48881134 31.30069733 228.48881134 31.30069733 229.59729004 31.58349609 C270.0191617 41.94635372 309.83680174 55.09111995 348.40228271 71.02349854 C349.03764954 71.28562134 349.67301636 71.54774414 350.32763672 71.81781006 C359.07213378 75.43309289 367.7563387 79.17854121 376.40228271 83.02349854 C377.4383667 83.48369385 378.47445068 83.94388916 379.54193115 84.41802979 C406.49901835 96.46683804 433.19738368 109.51227282 458.68499756 124.43609619 C461.56768459 126.12012414 464.46247103 127.78191997 467.35931396 129.44146729 C506.12998343 151.7345246 543.53060631 176.99714569 578.40228271 205.02349854 C579.04262451 205.53767334 579.68296631 206.05184814 580.3427124 206.581604 C588.92464193 213.48572276 597.41490746 220.48954921 605.78704834 227.64654541 C607.45062815 229.06471199 609.12124148 230.4742517 610.79290771 231.88287354 C617.66956474 237.69890347 624.35595385 243.67771143 630.90179443 249.86456299 C634.24232416 253.02128366 637.62394233 256.11875692 641.05877686 259.1729126 C646.08009532 263.68728728 650.89644233 268.37246518 655.66400146 273.15240479 C656.49889603 273.98634262 657.33379059 274.82028046 658.19398499 275.67948914 C659.94213552 277.4269648 661.68904657 279.17568126 663.43475342 280.92559814 C666.0901223 283.58633881 668.75080889 286.24167784 671.41204834 288.89654541 C673.12135353 290.60651124 674.83034858 292.31678716 676.53900146 294.02740479 C677.32457932 294.8109584 678.11015717 295.59451202 678.91954041 296.40180969 C683.0609923 300.56071407 687.04902955 304.7953451 690.86906433 309.25216675 C693.90771341 312.76272713 697.13281578 316.10682916 700.33197021 319.47076416 C701.42192653 320.6315142 702.48789757 321.8151318 703.53216553 323.01715088 C705.43175871 325.14553918 705.43175871 325.14553918 708.0145874 327.15875244 C711.1015763 330.02296307 712.80696071 332.10502608 714.40228271 336.02349854 C714.38563397 342.43210241 711.98043453 348.64225354 709.9559021 354.64794922 C708.88025102 357.83885528 707.87212949 361.04460593 706.87957764 364.26226807 C705.82686843 367.67055686 704.76963148 371.07680111 703.69187927 374.4772644 C699.66547359 387.1850825 696.18128973 400.02894635 692.71478271 412.89849854 C692.07708433 415.2487058 691.43898233 417.59880359 690.80047607 419.9487915 C685.11293734 440.91887076 679.6610634 461.94211433 674.40228271 483.02349854 C674.09959473 484.23531799 673.79690674 485.44713745 673.48504639 486.69567871 C661.35077216 535.22077292 661.35077216 535.22077292 650.40228271 584.02349854 C650.06461917 585.61628561 649.72688859 587.20905847 649.38909912 588.80181885 C647.8175036 596.21991339 646.25469874 603.63979624 644.70370483 611.06222534 C643.06283617 618.91326518 641.37969718 626.75346608 639.65228271 634.58599854 C637.78640579 643.08484038 636.10174102 651.60729072 634.50384521 660.16021729 C633.28065078 666.70580483 632.00899869 673.24189167 630.73910522 679.77853394 C630.08446987 683.15146945 629.43297904 686.52501225 628.78118896 689.89849854 C628.02405381 693.81635644 627.26400408 697.73352067 626.49212646 701.64849854 C624.67462855 711.0240069 623.22915516 720.44288825 621.84710693 729.89190674 C620.50950513 738.88023706 620.50950513 738.88023706 619.35931396 743.28912354 C618.34119747 747.26185565 617.71142519 751.21851524 617.15228271 755.27349854 C616.19387769 761.95838975 615.14847732 768.62405333 614.01556396 775.28131104 C613.89089249 776.01410278 613.76622101 776.74689453 613.63777161 777.50189209 C613.44712379 778.62198669 613.44712379 778.62198669 613.25262451 779.76470947 C610.69311465 794.80235327 608.38227081 809.83081647 606.45452881 824.96466064 C605.68816734 830.93449354 604.86340793 836.89454591 604.01333523 842.85311222 C600.84650226 865.06956257 598.13866367 887.32904188 595.55823135 909.62042236 C595.20771231 912.64704937 594.85606767 915.67354393 594.50418091 918.70001221 C592.78746998 933.47267301 591.08961912 948.24745569 589.40228271 963.02349854 C589.28850281 964.0191256 589.1747229 965.01475266 589.05749512 966.04055023 C581.79314674 1029.62761049 574.90596188 1093.29567441 570.02276611 1157.11729431 C569.95400269 1157.9852211 569.88523926 1158.85314789 569.81439209 1159.74737549 C569.72997864 1160.85361015 569.72997864 1160.85361015 569.64385986 1161.98219299 C569.15995297 1166.07116343 569.15995297 1166.07116343 568.40228271 1168.02349854 C566.754776 1169.00611877 566.754776 1169.00611877 564.58319092 1169.69268799 C563.76747116 1169.95849167 562.9517514 1170.22429535 562.11131287 1170.49815369 C561.21346573 1170.7707753 560.31561859 1171.04339691 559.39056396 1171.32427979 C557.98306633 1171.77109856 557.98306633 1171.77109856 556.5471344 1172.22694397 C553.50544745 1173.18232789 550.45607371 1174.10758397 547.40228271 1175.02349854 C546.42176941 1175.31835144 545.4412561 1175.61320435 544.43103027 1175.91699219 C537.17002047 1178.08420469 529.88439079 1180.16011553 522.58978271 1182.21099854 C520.87427719 1182.6944725 520.87427719 1182.6944725 519.12411499 1183.18771362 C411.62371349 1213.41834867 301.48855988 1232.17096774 154.21478271 1245.89849854 C153.45601837 1245.96025269 152.69725403 1246.02200684 151.91549683 1246.08563232 C141.38708708 1246.9308526 130.95856698 1247.13230393 120.40228271 1247.02349854 C120.33219179 1236.55959559 120.53087941 1226.12490069 120.91790771 1215.66802979 C120.97418556 1214.10451994 121.03039704 1212.5410077 121.08654785 1210.97749329 C121.26954073 1205.93011402 121.46043853 1200.88304793 121.65228271 1195.83599854 C121.70125702 1194.53718624 121.70125702 1194.53718624 121.7512207 1193.21213531 C123.06847245 1158.31291983 124.9399989 1123.46574772 127.17376709 1088.61419678 C127.3895318 1085.22385545 127.6003508 1081.83325835 127.80853271 1078.44244385 C127.87230103 1077.4064505 127.93606934 1076.37045715 128.00177002 1075.30307007 C128.11486987 1073.46170345 128.22736573 1071.62029951 128.33892822 1069.77883911 C129.36791434 1053.11941174 130.65238004 1036.48766384 132.18353271 1019.86724854 C132.26809723 1018.94285477 132.35266174 1018.018461 132.43978882 1017.0660553 C134.42806897 995.35154463 136.57788716 973.65318518 138.7567749 951.95709229 C139.29721397 946.57560332 139.83402577 941.19375943 140.36991978 935.81181622 C142.51253142 914.30861915 144.69174847 892.81209154 147.14117432 871.34136963 C148.01817435 863.63862945 148.81186086 855.93614192 149.46478271 848.21099854 C150.14326359 840.35231949 151.08948953 832.56126251 152.15643311 824.74639893 C153.42817741 815.23312159 154.41650454 805.69467502 155.40228271 796.14849854 C156.92594193 781.42093114 158.56938278 766.71626093 160.40228271 752.02349854 C160.66282739 749.91413934 160.9232414 747.80476401 161.18353271 745.69537354 C164.40489604 719.6738942 168.07350611 693.73705512 172.15228271 667.83599854 C172.32524872 666.73665985 172.49821472 665.63732117 172.67642212 664.50466919 C177.67385529 632.77717789 182.83400187 601.12355942 189.10336304 569.62042236 C190.11653417 564.51318537 191.09299898 559.39994851 192.04681396 554.28131104 C192.18286545 553.5513089 192.31891693 552.82130676 192.45909119 552.06918335 C192.59607925 551.33400482 192.73306732 550.59882629 192.87420654 549.84136963 C204.70297988 486.36859815 218.46460921 423.27556292 234.61322021 360.76177979 C235.07286241 358.98036123 235.53248764 357.19893829 235.99209595 355.41751099 C238.05850618 347.41314069 240.13052306 339.41037174 242.22535896 331.41338825 C243.09890946 328.0727727 243.96579309 324.73044966 244.8313179 321.38774681 C245.23899031 319.82000033 245.64971128 318.25304301 246.06367111 316.68694496 C246.63580606 314.52152623 247.19740634 312.35362142 247.7567749 310.18487549 C248.0758783 308.96556839 248.39498169 307.74626129 248.72375488 306.49000549 C249.43218204 302.87074692 249.67545852 299.70097663 249.40228271 296.02349854 C244.50153147 290.26776012 236.94512639 287.80198362 230.15228271 284.83599854 C229.51157837 284.55315002 228.87087402 284.27030151 228.21075439 283.97888184 C193.31886978 268.5810869 157.45371618 256.89617853 120.40228271 248.02349854 C118.90302246 247.65732422 118.90302246 247.65732422 117.37347412 247.28375244 C82.0443338 238.72439773 45.64821324 233.88343284 9.62597656 229.30804443 C6.54353435 228.91361231 3.46338264 228.50211509 0.38275146 228.09381104 C-5.93331646 227.28067807 -12.25916597 226.63334533 -18.59771729 226.02349854 C-19.92620227 225.8871151 -21.25465111 225.75037923 -22.58306885 225.61334229 C-107.05943099 217.08465579 -195.64020052 222.63583766 -380.22271729 254.83599854 C-381.3261145 255.11453674 -382.42951172 255.39307495 -383.56634521 255.68005371 C-386.71723241 256.47949642 -389.86500463 257.29006681 -393.01177979 258.10552979 C-393.93594696 258.34067795 -394.86011414 258.57582611 -395.81228638 258.81809998 C-410.418777 262.56959543 -410.418777 262.56959543 -420.59771729 273.02349854 C-422.089905 276.76230406 -423.33326708 280.51022541 -424.48834229 284.36334229 C-425.38312076 287.31548112 -426.36002403 290.11452635 -427.53521729 292.96099854 C-431.44019662 302.46946448 -435.13621012 312.05197924 -437.95709229 321.94146729 C-438.92055888 325.07273371 -440.30163659 328.01659133 -441.59771729 331.02349854 C-443.56967666 336.54853786 -445.32538382 342.14581343 -447.08209229 347.74224854 C-447.47304077 348.98699951 -447.47304077 348.98699951 -447.87188721 350.25689697 C-448.38496016 351.89478983 -448.89566519 353.53342695 -449.40362549 355.1729126 C-450.55640903 358.86398116 -451.75753112 362.50615247 -453.15240479 366.11334229 C-454.86798489 370.59715612 -456.00284435 375.15634581 -457.14654541 379.81842041 C-457.96378771 383.03159394 -458.73489216 385.22926084 -460.59771729 388.02349854 C-461.27121694 389.97573799 -461.27121694 389.97573799 -461.78131104 392.12115479 C-461.98498291 392.91723145 -462.18865479 393.71330811 -462.39849854 394.5335083 C-462.60861572 395.37583008 -462.81873291 396.21815186 -463.03521729 397.08599854 C-463.48059065 398.82590006 -463.9271912 400.56548795 -464.37506104 402.30474854 C-464.6938623 403.54611572 -464.6938623 403.54611572 -465.019104 404.81256104 C-465.65828441 407.25493138 -466.35437757 409.6733302 -467.09771729 412.08599854 C-471.28931727 425.77855848 -474.75201212 439.61711428 -478.07452393 453.54327393 C-479.8425188 460.94248033 -481.70011633 468.29787333 -483.70318604 475.63677979 C-484.92909287 480.2780952 -486.01612373 484.94803799 -487.09844971 489.62457275 C-488.35755785 495.05382243 -489.7158975 500.45302883 -491.09771729 505.85211182 C-492.01723946 509.50775126 -492.84956053 513.16858767 -493.59771729 516.86334229 C-493.76529541 517.69043701 -493.93287354 518.51753174 -494.10552979 519.36968994 C-494.42086588 520.94981156 -494.72884637 522.53142971 -495.02740479 524.11480713 C-495.84108203 528.20906684 -496.9154461 531.94217181 -498.46490479 535.82037354 C-501.69238521 544.39682697 -503.04103258 553.48430903 -504.72271729 562.46099854 C-505.07217864 564.28471954 -505.42243396 566.10828859 -505.77349854 567.93170166 C-507.50002929 576.94343221 -509.16220651 585.96023725 -510.59771729 595.02349854 C-511.25771729 595.02349854 -511.91771729 595.02349854 -512.59771729 595.02349854 C-512.64090088 595.69614746 -512.68408447 596.36879639 -512.72857666 597.06182861 C-513.32941012 605.29917271 -514.45914656 613.39567564 -515.75445557 621.54571533 C-516.10311449 623.7450439 -516.44256534 625.94567043 -516.78131104 628.14654541 C-517.0008242 629.54702061 -517.22085612 630.94741463 -517.44146729 632.34771729 C-517.63933838 633.60672852 -517.83720947 634.86573975 -518.04107666 636.16290283 C-518.59771729 639.02349854 -518.59771729 639.02349854 -519.59771729 640.02349854 C-520.07001538 642.80393529 -520.4859491 645.57388013 -520.86724854 648.36724854 C-520.98834488 649.23198288 -521.10944122 650.09671722 -521.23420715 650.98765564 C-521.6308504 653.83231436 -522.0208173 656.67783991 -522.41021729 659.52349854 C-522.67987889 661.47312867 -522.94957308 663.4227543 -523.21929932 665.37237549 C-525.5390934 682.2332222 -527.63853436 699.11719198 -529.59771729 716.02349854 C-530.25771729 716.02349854 -530.91771729 716.02349854 -531.59771729 716.02349854 C-531.55783691 717.31119141 -531.51795654 718.59888428 -531.47686768 719.92559814 C-531.48321654 727.86767546 -532.58149723 735.71795911 -533.53131104 743.58990479 C-533.73108245 745.27711004 -533.93046256 746.96436167 -534.12947083 748.6516571 C-534.54527817 752.16611212 -534.96511357 755.68005455 -535.38800049 759.19366455 C-535.93080721 763.70561744 -536.46442321 768.21860099 -536.99522305 772.73198032 C-537.40458983 776.20577324 -537.81820993 779.67904901 -538.23320198 783.152174 C-538.43176095 784.81748151 -538.62910392 786.48293446 -538.82522392 788.14853096 C-539.09856626 790.46358922 -539.37749087 792.77790522 -539.65802002 795.09210205 C-539.73858139 795.78345245 -539.81914276 796.47480286 -539.90214539 797.18710327 C-540.48337218 801.90915343 -540.48337218 801.90915343 -541.59771729 803.02349854 C-541.97622869 805.57414265 -542.29483103 808.1100965 -542.57818604 810.67193604 C-542.67148193 811.48677963 -542.76477783 812.30162323 -542.86090088 813.14115906 C-543.17401773 815.89306443 -543.47994502 818.64571255 -543.78521729 821.39849854 C-543.89209869 822.35034027 -543.9989801 823.30218201 -544.10910034 824.28286743 C-546.11169513 842.12230692 -547.96486248 859.97715993 -549.78521729 877.83599854 C-549.97451309 879.68859283 -549.97451309 879.68859283 -550.16763306 881.57861328 C-551.77854167 897.38288674 -553.2756605 913.19235118 -554.59771729 929.02349854 C-555.25771729 929.02349854 -555.91771729 929.02349854 -556.59771729 929.02349854 C-556.58113068 930.21342155 -556.58113068 930.21342155 -556.56420898 931.42738342 C-556.50317798 939.18829011 -556.85869905 946.80821342 -557.55084229 954.53521729 C-557.75827769 956.97106222 -557.96537443 959.406936 -558.17218018 961.84283447 C-558.33727585 963.75751526 -558.33727585 963.75751526 -558.50570679 965.71087646 C-564.52025723 1035.71927955 -567.14756213 1105.81584063 -569.59771729 1176.02349854 C-576.52841532 1174.17887525 -583.396194 1172.2103359 -590.22271729 1170.01177979 C-591.11105255 1169.72683151 -591.99938782 1169.44188324 -592.91464233 1169.14830017 C-642.76640233 1153.09826131 -691.10592139 1134.06444301 -738.59771729 1112.02349854 C-739.57563232 1111.57248779 -740.55354736 1111.12147705 -741.56109619 1110.65679932 C-775.14598727 1095.15465225 -808.13067196 1077.01654483 -838.59771729 1056.02349854 C-839.79777477 1055.21161531 -840.99832999 1054.40046751 -842.19927979 1053.58990479 C-855.70111307 1044.4393572 -868.85492404 1034.79562695 -881.72271729 1024.77349854 C-882.30875732 1024.31974854 -882.89479736 1023.86599854 -883.49859619 1023.39849854 C-887.47686437 1020.26520436 -887.47686437 1020.26520436 -888.59771729 1018.02349854 C-888.82853003 1015.02824329 -889.00183821 1012.05093074 -889.13287354 1009.05084229 C-889.17603195 1008.12246552 -889.21919037 1007.19408875 -889.26365662 1006.23757935 C-889.40335301 1003.14565999 -889.53334365 1000.05346986 -889.66021729 996.96099854 C-889.70440796 995.89086517 -889.74859863 994.82073181 -889.79412842 993.71817017 C-891.48319534 951.76847622 -890.61758263 909.94584746 -888.59771729 868.02349854 C-888.54915588 866.99819031 -888.50059448 865.97288208 -888.45056152 864.91650391 C-885.9010776 811.4480118 -880.90954435 758.04944781 -873.59771729 705.02349854 C-873.39018829 703.51269714 -873.39018829 703.51269714 -873.1784668 701.97137451 C-869.78450121 677.32250023 -866.11006342 652.75716341 -861.4175415 628.31988525 C-860.66664186 624.40225229 -859.938019 620.48068877 -859.21240234 616.55830383 C-853.63673402 586.4331269 -847.24239292 556.5570843 -839.96734619 526.79718018 C-838.0668683 519.02284845 -836.2762734 511.23560077 -834.61724854 503.40631104 C-831.62646372 490.08639261 -827.57530467 477.01856187 -823.65045166 463.95220947 C-822.97829892 461.71138476 -822.31113115 459.46912338 -821.64459229 457.22662354 C-821.43840271 456.54545471 -821.23221313 455.86428589 -821.01977539 455.16247559 C-820.18156964 452.33381288 -819.59771729 449.99291402 -819.59771729 447.02349854 C-819.59771729 442.84503785 -817.47521594 440.24361046 -815.28521729 436.83599854 C-814.83517334 436.12693359 -814.38512939 435.41786865 -813.92144775 434.68731689 C-809.00568895 426.99954557 -803.83211794 419.49637628 -798.59771729 412.02349854 C-798.11544678 411.33111084 -797.63317627 410.63872314 -797.1362915 409.925354 C-789.84256971 399.45521757 -782.32230956 389.17935844 -774.59771729 379.02349854 C-773.96035645 378.18141846 -773.96035645 378.18141846 -773.31011963 377.32232666 C-766.75829299 368.66965668 -759.95647468 360.23599769 -753.081604 351.8394165 C-751.79138534 350.26050133 -750.50836141 348.67571227 -749.22662354 347.08990479 C-740.42442097 336.22039593 -731.23834217 325.68954766 -721.70489502 315.45684814 C-719.0307123 312.58573816 -716.4058674 309.68586088 -713.84771729 306.71099854 C-710.98354193 303.39495085 -707.93681201 300.31641758 -704.78521729 297.27349854 C-702.96895126 295.40533919 -701.28529899 293.50579365 -699.59381104 291.52740479 C-695.05273666 286.3014788 -690.15754658 281.43334429 -685.25518799 276.55059814 C-683.66312762 274.96389907 -682.07648738 273.37192112 -680.49029541 271.77935791 C-675.5352771 266.82143927 -670.53586959 261.97030479 -665.20489502 257.41241455 C-663.23413622 255.70929336 -661.40642855 253.89680663 -659.59771729 252.02349854 C-656.42655699 248.80915123 -653.14188976 245.80598891 -649.71881104 242.86334229 C-647.3728067 240.82841035 -645.08035278 238.74058887 -642.78521729 236.64849854 C-638.4929811 232.77437973 -634.06993055 229.10332306 -629.57427979 225.46881104 C-626.84577694 223.22728507 -624.16829631 220.94028812 -621.50079346 218.6272583 C-615.02810961 213.01665098 -608.40380024 207.66997026 -601.5635376 202.51226807 C-599.28318604 200.78529541 -597.01451108 199.04353967 -594.74615479 197.30084229 C-579.88008209 185.8942743 -564.9014497 174.70825362 -549.22271729 164.43756104 C-546.3832687 162.56923842 -543.6038715 160.62583699 -540.82818604 158.66412354 C-535.61787602 155.00322368 -530.29082791 151.55268501 -524.91021729 148.14849854 C-523.94180908 147.53482422 -522.97340088 146.9211499 -521.97564697 146.28887939 C-514.98067624 141.86962577 -507.95904225 137.50804556 -500.81939697 133.32574463 C-499.17743747 132.36330375 -497.5378126 131.39687736 -495.8994751 130.42828369 C-479.93490431 121.00275508 -463.73815514 112.22032302 -447.20172119 103.85113525 C-443.70497849 102.08094969 -440.2198244 100.28859737 -436.73443604 98.49615479 C-379.77479707 69.38508473 -319.29648097 47.63359738 -257.59771729 31.02349854 C-256.86935669 30.82711792 -256.14099609 30.6307373 -255.39056396 30.42840576 C-207.21543392 17.48545986 -158.12816267 9.51777706 -108.59771729 4.02349854 C-107.49959717 3.89990967 -106.40147705 3.7763208 -105.27008057 3.64898682 C-70.39593528 -0.16697411 -35.0397383 -0.40995442 0 0 Z " fill="#E0C235" transform="translate(1061.5977172851563,103.97650146484375)"/>
<path d="M0 0 C1.9744619 2.54440602 3.67739423 5.06931575 5.19921875 7.90625 C5.59947266 8.64391602 5.99972656 9.38158203 6.41210938 10.14160156 C6.83298828 10.91987305 7.25386719 11.69814453 7.6875 12.5 C11.77083171 19.93855843 16.11649022 27.05290388 21 34 C21.74636719 35.0828125 22.49273437 36.165625 23.26171875 37.28125 C32.1489209 50.05921297 41.97827467 62.04892003 52.6015625 73.41796875 C54.54483106 75.50998913 56.4096941 77.63122372 58.25 79.8125 C66.39955534 89.20520786 75.50018826 97.98770327 85 106 C86.10835292 106.96954855 87.21494167 107.94111547 88.3203125 108.9140625 C96.66210083 116.24141241 105.17732745 123.26049135 114 130 C114.63019043 130.4832373 115.26038086 130.96647461 115.90966797 131.46435547 C138.22362525 148.53450502 161.78132173 163.78221123 186 178 C186.78826172 178.46696289 187.57652344 178.93392578 188.38867188 179.41503906 C253.63051738 217.98653277 324.48166761 245.49929661 396.27929688 269.08865356 C398.12515369 269.69944095 399.96637502 270.32418306 401.80737305 270.94946289 C403.71275402 271.57643042 405.63383958 272.16180711 407.57739258 272.65795898 C410.42261944 273.44604295 412.50998158 274.21607798 414.11328125 276.78100586 C415.06663285 279.13933829 415.7682667 281.48356713 416.4375 283.9375 C417.00269803 285.7563228 417.57586784 287.5726841 418.15625 289.38671875 C418.45144531 290.31790527 418.74664063 291.2490918 419.05078125 292.20849609 C433.62042186 335.05553075 461.83056785 373.9306393 492 407 C492.908085 408.01254315 493.81561172 409.02558718 494.72265625 410.0390625 C499.18919847 415.00625859 503.66573816 419.81256935 508.796875 424.109375 C511.08739764 426.07500081 513.2818366 428.128814 515.47705078 430.19970703 C522.12635975 436.45498288 529.06630356 442.16978099 536.32080078 447.70605469 C537.88477355 448.91120962 539.42583934 450.14593148 540.96484375 451.3828125 C571.82180306 475.9548458 608.01591362 494.63079572 645 508 C646.40717285 508.51554443 646.40717285 508.51554443 647.84277344 509.04150391 C668.55221625 516.55458232 689.92172282 521.61177629 711.625 525.3125 C712.48609375 525.45977539 713.3471875 525.60705078 714.234375 525.75878906 C731.33460927 528.48334131 748.39012381 529.41009818 765.6875 529.375 C766.70614136 529.37445618 767.72478271 529.37391235 768.77429199 529.37335205 C814.23398374 529.2625785 859.1036847 520.32228277 900 500 C900.78874512 499.61376465 901.57749023 499.2275293 902.39013672 498.82958984 C919.03686903 490.61881516 934.44619408 480.51000441 949 469 C950.42699219 467.88044922 950.42699219 467.88044922 951.8828125 466.73828125 C966.95726567 454.45896326 981.37502062 440.44342264 992.78613281 424.66259766 C994.06493376 422.91106217 995.38352074 421.19540102 996.7109375 419.48046875 C1012.65567605 398.66147534 1023.58124347 374.82530155 1033.60864258 350.74316406 C1034.05701981 349.66649475 1034.50539703 348.58982544 1034.96736145 347.48052979 C1035.30813217 346.66195496 1035.64890289 345.84338013 1036 345 C1048.82442382 344.0007032 1061.64941119 343.01605497 1074.48046875 342.10546875 C1103.73077055 340.0153922 1132.87458786 337.41899664 1162 334 C1163.09675049 333.87131531 1164.19350098 333.74263062 1165.32348633 333.61004639 C1227.30001417 326.30757926 1289.38629665 317.58291799 1350.11230469 302.93066406 C1353.76795977 302.05554744 1357.42812013 301.20391379 1361.0909729 300.3596344 C1442.51984905 281.58057583 1522.44980104 256.39945988 1642 202 C1642.61528564 201.69235718 1643.23057129 201.38471436 1643.86450195 201.06774902 C1660.62265496 192.6706989 1676.92974715 183.644482 1693 174 C1693.82322754 173.50902832 1694.64645508 173.01805664 1695.49462891 172.51220703 C1723.00919079 156.08060823 1749.46160868 137.63055569 1774 117 C1774.52094238 116.56397461 1775.04188477 116.12794922 1775.57861328 115.67871094 C1792.33766471 101.62084151 1808.8610158 86.73411421 1823 70 C1823.88667391 68.98710059 1824.77483301 67.97550034 1825.6640625 66.96484375 C1840.81644502 49.65924106 1853.76027662 31.12326191 1864.97851562 11.0559082 C1865.45869141 10.19827881 1865.93886719 9.34064941 1866.43359375 8.45703125 C1866.85697021 7.69366455 1867.28034668 6.93029785 1867.71655273 6.14379883 C1869.01502848 3.97489727 1870.44848615 1.99375327 1872 0 C1862.03051413 93.5677788 1831.96771343 186.51963456 1783 290 C1782.26547607 291.50989502 1782.26547607 291.50989502 1781.51611328 293.05029297 C1774.68515111 307.07031919 1767.37795598 320.73237629 1759.58496094 334.24023438 C1758.05360805 336.90665659 1756.54282473 339.5835641 1755.0390625 342.265625 C1734.22179903 379.30631045 1710.0266681 414.44277311 1684 448 C1683.51789063 448.62390625 1683.03578125 449.2478125 1682.5390625 449.890625 C1676.74126 457.38612657 1670.77745726 464.70662734 1664.62109375 471.91015625 C1662.17696666 474.77577694 1659.80304266 477.69405522 1657.4375 480.625 C1653.56187067 485.38807218 1649.48765711 489.93364249 1645.33203125 494.453125 C1643.37594748 496.58941749 1641.45812303 498.74780657 1639.5625 500.9375 C1633.18642142 508.26320731 1626.65235898 515.46163654 1619.71118164 522.25634766 C1618.01880456 523.98083861 1616.45318256 525.76638897 1614.88671875 527.60546875 C1610.65394156 532.46953761 1606.1311029 537.01566963 1601.5625 541.5625 C1600.75490234 542.37396484 1599.94730469 543.18542969 1599.11523438 544.02148438 C1594.78246145 548.34727459 1590.36793611 552.49993208 1585.72631836 556.49194336 C1583.54547757 558.39705629 1581.51585234 560.42212143 1579.5 562.5 C1576.16879193 565.87100065 1572.74888372 569.0451403 1569.15234375 572.12890625 C1566.61947838 574.33079829 1564.15667478 576.60195826 1561.6875 578.875 C1557.22126486 582.94859909 1552.63078621 586.80827703 1547.92578125 590.6015625 C1545.27768561 592.77236453 1542.68853577 594.99294623 1540.10766602 597.2421875 C1533.09500507 603.34479339 1525.83966323 609.044176 1518.421875 614.64453125 C1515.42956377 616.90469534 1512.46318377 619.19349323 1509.515625 621.51171875 C1508.76055664 622.10484863 1508.00548828 622.69797852 1507.22753906 623.30908203 C1505.82594584 624.41235281 1504.42653163 625.51840309 1503.03027344 626.62841797 C1489.31590478 637.39739672 1474.6882074 647.02275714 1460.1875 656.6875 C1459.34338562 657.2503772 1458.49927124 657.81325439 1457.62957764 658.39318848 C1426.63747252 679.0264263 1394.50990773 697.41125464 1361.3359375 714.29833984 C1358.37436847 715.80903482 1355.42056581 717.33365464 1352.46875 718.86328125 C1315.41607751 737.91305891 1276.32022353 752.92161209 1236.92803955 766.34301758 C1235.11651011 766.960299 1233.30602096 767.58063097 1231.49560547 768.20117188 C1195.73800948 780.36813805 1159.00087948 789.52861198 1122 797 C1121.28146851 797.1456842 1120.56293701 797.29136841 1119.82263184 797.44146729 C1080.96219732 805.28874171 1041.50856798 809.97711789 1002 813 C1001.21312805 813.06058594 1000.4262561 813.12117188 999.61553955 813.18359375 C956.2133402 816.47466913 912.4052053 815.97572715 869 813 C867.87319824 812.92362305 867.87319824 812.92362305 866.72363281 812.84570312 C843.02316929 811.22111604 819.50483474 808.41832014 796 805 C795.23707642 804.8895636 794.47415283 804.7791272 793.68811035 804.66534424 C741.43585866 797.06676489 690.10818042 784.60787242 640 768 C639.31290955 767.773125 638.62581909 767.54625 637.91790771 767.3125 C579.92694703 748.14947066 522.66190522 723.62584905 469.90576172 692.69433594 C466.72225326 690.83804719 463.5202216 689.01631364 460.31640625 687.1953125 C442.54421025 677.04056201 425.51339142 665.91906225 408.58276367 654.42456055 C405.26239777 652.17244708 401.92234196 649.95094297 398.578125 647.734375 C393.75114934 644.52165864 389.00367188 641.21999071 384.3125 637.8125 C383.17603027 636.98903076 383.17603027 636.98903076 382.01660156 636.14892578 C373.90144375 630.24164244 365.93108175 624.15127206 358 618 C357.37609375 617.51789062 356.7521875 617.03578125 356.109375 616.5390625 C348.61387343 610.74126 341.29337266 604.77745726 334.08984375 598.62109375 C331.22422306 596.17696666 328.30594478 593.80304266 325.375 591.4375 C320.61192782 587.56187067 316.06635751 583.48765711 311.546875 579.33203125 C309.41058251 577.37594748 307.25219343 575.45812303 305.0625 573.5625 C299.61131425 568.81469305 294.30070201 563.91426844 289 559 C288.36916504 558.41573242 287.73833008 557.83146484 287.08837891 557.22949219 C278.71406271 549.4563985 270.4683419 541.565711 262.375 533.5 C261.6413623 532.77095459 260.90772461 532.04190918 260.15185547 531.29077148 C256.10675419 527.23407035 252.25457074 523.07117017 248.51416016 518.73242188 C246.76131769 516.72691234 244.91583585 514.84977255 243 513 C239.80738688 509.8501997 236.82838721 506.58780511 233.90625 503.1875 C231.69054352 500.64488601 229.40901408 498.16889802 227.125 495.6875 C223.05140091 491.22126486 219.19172297 486.63078621 215.3984375 481.92578125 C213.22763547 479.27768561 211.00705377 476.68853577 208.7578125 474.10766602 C202.65520661 467.09500507 196.955824 459.83966323 191.35546875 452.421875 C189.09530466 449.42956377 186.80650677 446.46318377 184.48828125 443.515625 C183.89515137 442.76055664 183.30202148 442.00548828 182.69091797 441.22753906 C181.58764719 439.82594584 180.48159691 438.42653163 179.37158203 437.03027344 C168.60260328 423.31590478 158.97724286 408.6882074 149.3125 394.1875 C148.7496228 393.34338562 148.18674561 392.49927124 147.60681152 391.62957764 C127.3672907 361.22885419 109.23931924 329.77742304 92.65087891 297.234375 C91.10373761 294.20324103 89.54303856 291.17944932 87.98046875 288.15625 C68.66809782 250.49760974 53.29274654 210.94937183 39.65698242 170.92803955 C39.039701 169.11651011 38.41936903 167.30602096 37.79882812 165.49560547 C23.33115541 122.97644428 13.05949926 79.15585201 5.0625 35 C4.91847748 34.20846527 4.77445496 33.41693054 4.62606812 32.60140991 C2.67042012 21.77171269 1.16953117 10.94217172 0 0 Z " fill="#BFBDC5" transform="translate(114,1180)"/>
<path d="M0 0 C3.59650827 0.38816227 7.19437834 0.73377102 10.79638672 1.06640625 C45.69147551 4.40529795 80.39348097 9.7622785 114.80029297 16.41015625 C115.54516968 16.55324219 116.29004639 16.69632812 117.05749512 16.84375 C156.95993213 24.51855347 195.6598731 35.03029238 233.36279297 50.28515625 C234.02020477 50.54992767 234.67761658 50.8146991 235.35494995 51.0874939 C259.81726533 60.99664682 259.81726533 60.99664682 262.80029297 67.41015625 C262.73365482 73.49648861 261.20093582 79.44081957 259.64794922 85.2890625 C259.4325499 86.12120773 259.21715057 86.95335297 258.995224 87.81071472 C258.53161944 89.59931377 258.06527847 91.3872054 257.59643555 93.17443848 C256.58903273 97.01681698 255.59665179 100.86303101 254.6031189 104.70901489 C254.08933761 106.69720855 253.57486691 108.68522418 253.0597229 110.67306519 C248.85730036 126.88982654 244.77800838 143.13684371 240.80029297 159.41015625 C240.48828949 160.68660004 240.48828949 160.68660004 240.16998291 161.98883057 C228.12184914 211.40256234 217.52976636 261.28175408 208.19958496 311.28088379 C207.77388583 313.55097551 207.34290067 315.82001511 206.91064453 318.08886719 C187.91817372 417.77889159 174.93934982 517.90941216 143.80029297 828.41015625 C143.75011269 829.08117874 143.6999324 829.75220123 143.64823151 830.44355774 C139.17136844 890.36141203 136.8488847 950.36839683 134.80029297 1010.41015625 C131.91613414 1011.85223566 129.38307768 1011.50410512 126.17529297 1011.47265625 C124.98677734 1011.46363281 123.79826172 1011.45460938 122.57373047 1011.4453125 C121.65849609 1011.43371094 120.74326172 1011.42210937 119.80029297 1011.41015625 C119.64061035 1010.84433838 119.48092773 1010.27852051 119.31640625 1009.69555664 C104.67077874 958.38447218 79.16653955 910.45884981 43.80029297 870.41015625 C43.05521484 869.56582031 42.31013672 868.72148438 41.54248047 867.8515625 C39.31294453 865.35432243 37.05832894 862.8816384 34.80029297 860.41015625 C33.90014739 859.40531146 33.0004289 858.40008397 32.10107422 857.39453125 C24.4503135 848.90031828 16.30950605 841.04068812 7.80029297 833.41015625 C7.2632373 832.92836914 6.72618164 832.44658203 6.17285156 831.95019531 C-14.24065294 813.80914969 -37.3754126 798.64806581 -61.19970703 785.41015625 C-61.94768555 784.99024414 -62.69566406 784.57033203 -63.46630859 784.13769531 C-109.55266711 758.41367559 -165.21149413 741.59880963 -218.12158203 741.171875 C-219.13228256 741.16212646 -220.14298309 741.15237793 -221.18431091 741.14233398 C-243.88142921 740.96851709 -265.82367829 741.33708443 -288.19970703 745.41015625 C-289.16521484 745.57080566 -290.13072266 745.73145508 -291.12548828 745.89697266 C-332.26491067 752.82306772 -372.71025147 770.79865331 -406.19970703 795.41015625 C-406.77366211 795.82861816 -407.34761719 796.24708008 -407.93896484 796.67822266 C-415.20101598 802.00525101 -421.94070348 807.73800088 -428.50048828 813.8984375 C-430.68775289 815.93376477 -432.90788506 817.87136677 -435.19970703 819.78515625 C-471.52708648 851.54352509 -496.51002254 900.91294938 -507.19970703 947.41015625 C-512.28820858 947.01873305 -516.65787956 946.02037114 -521.49658203 944.36328125 C-522.5674707 943.99879883 -523.63835937 943.63431641 -524.74169922 943.25878906 C-525.95841309 942.83871582 -525.95841309 942.83871582 -527.19970703 942.41015625 C-527.47394652 921.77890829 -527.08800299 901.21400284 -526.26220703 880.59765625 C-526.21864075 879.50988892 -526.17507446 878.42212158 -526.13018799 877.3013916 C-525.87600671 871.02669783 -525.60779098 864.75271391 -525.33184814 858.47894287 C-525.19651254 855.33596872 -525.07022199 852.19272086 -524.9453125 849.04931641 C-524.86225238 847.04068553 -524.77908633 845.03205904 -524.69580078 843.0234375 C-524.6605983 842.0962944 -524.62539581 841.16915131 -524.58912659 840.21391296 C-524.55270554 839.36126358 -524.51628448 838.5086142 -524.47875977 837.63012695 C-524.44886459 836.88446976 -524.41896942 836.13881256 -524.38816833 835.37055969 C-524.19970703 833.41015625 -524.19970703 833.41015625 -523.19970703 830.41015625 C-523.03636815 828.95338913 -522.91719076 827.49141779 -522.82666016 826.02832031 C-522.76990112 825.14178772 -522.71314209 824.25525513 -522.65466309 823.34185791 C-522.59734009 822.37955261 -522.54001709 821.41724731 -522.48095703 820.42578125 C-522.41815552 819.41916443 -522.355354 818.41254761 -522.29064941 817.37542725 C-522.15766653 815.2302207 -522.02666168 813.08489078 -521.89746094 810.93945312 C-521.70463556 807.74188467 -521.50549202 804.54476312 -521.30517578 801.34765625 C-520.72819831 792.00837705 -520.19328225 782.67403583 -519.8417511 773.32328796 C-519.53656356 765.25588805 -519.06689468 757.32446409 -518.02107239 749.3165741 C-517.14947073 742.47058525 -516.61314222 735.60671997 -516.08642578 728.7265625 C-515.99053665 727.47568344 -515.89464752 726.22480438 -515.79585266 724.9360199 C-515.5954909 722.3075049 -515.39576165 719.67894929 -515.1968689 717.05032349 C-512.97942584 687.78890899 -510.28577534 658.59384398 -507.19970703 629.41015625 C-506.53970703 629.41015625 -505.87970703 629.41015625 -505.19970703 629.41015625 C-505.1673999 628.32750488 -505.13509277 627.24485352 -505.10180664 626.12939453 C-504.5387896 610.78225284 -502.79574505 595.58392868 -501.00268555 580.34246826 C-500.67986762 577.58073634 -500.36502458 574.81811853 -500.05021763 572.05546379 C-499.66826553 568.71224147 -499.27950098 565.36982471 -498.89111328 562.02734375 C-498.75145645 560.80739716 -498.61179962 559.58745056 -498.46791077 558.33053589 C-497.77012908 552.43285352 -496.90014525 546.65805223 -495.67268372 540.84881592 C-494.79900743 536.34415598 -494.3178517 531.79095788 -493.79736328 527.234375 C-493.67413193 526.18852737 -493.55090057 525.14267975 -493.42393494 524.06513977 C-493.03287442 520.74307917 -492.64706773 517.42044034 -492.26220703 514.09765625 C-490.55978012 499.45591569 -488.75276733 484.84809925 -486.61343384 470.26364136 C-485.99059956 465.96793628 -485.39271379 461.66882085 -484.79350281 457.36976624 C-484.12529522 452.57879077 -483.45024407 447.78878807 -482.77514648 442.9987793 C-482.43297473 440.56318739 -482.09280771 438.127313 -481.75463867 435.69116211 C-479.90541518 422.38264047 -477.89351602 409.18093296 -475.14379883 396.02758789 C-474.17980157 391.39586845 -473.35349755 386.74681178 -472.56689453 382.08203125 C-472.44146774 381.3387709 -472.31604095 380.59551056 -472.18681335 379.82972717 C-471.81388402 377.60690152 -471.4437425 375.38363148 -471.07470703 373.16015625 C-470.57576272 370.15432104 -470.07259484 367.1492364 -469.56689453 364.14453125 C-469.35145996 362.84741211 -469.13602539 361.55029297 -468.9140625 360.21386719 C-468.2849509 356.86405217 -467.51963924 353.60759145 -466.6706543 350.31051636 C-465.99810727 347.59666357 -465.50199958 344.86215043 -465.01611328 342.109375 C-464.70770508 340.39524414 -464.70770508 340.39524414 -464.39306641 338.64648438 C-463.97463241 336.29263119 -463.55794734 333.9384664 -463.14306641 331.58398438 C-462.01227275 325.31706252 -460.66316769 319.22588931 -458.9206543 313.10229492 C-457.65122129 308.36201798 -456.79759455 303.54224163 -455.88720703 298.72265625 C-453.66736775 287.34134827 -450.98177349 276.13616678 -448.09033203 264.90966797 C-447.09519506 260.99949984 -446.12948538 257.08272032 -445.16845703 253.1640625 C-440.43781576 233.91707321 -435.3700596 214.78804463 -429.97616577 195.71626282 C-428.94192324 192.05818666 -427.91814638 188.39758349 -426.91015625 184.73217773 C-424.69425726 176.67729908 -422.42425189 168.66408829 -419.82470703 160.72265625 C-418.05848568 155.26516107 -416.299961 149.81004721 -414.68798828 144.3046875 C-410.43999617 129.82747592 -405.49915628 115.62641951 -400.46630859 101.40771484 C-397.36369919 92.63547507 -394.32896704 83.8556666 -391.46801758 75.0012207 C-388.50226076 65.83330066 -385.35335029 56.81480788 -381.51220703 47.97265625 C-381.16762451 47.15506836 -380.82304199 46.33748047 -380.46801758 45.49511719 C-380.12810791 44.74649414 -379.78819824 43.99787109 -379.43798828 43.2265625 C-379.14964111 42.58146729 -378.86129395 41.93637207 -378.56420898 41.27172852 C-375.01095742 36.42407362 -369.58012176 34.63530156 -364.03173828 32.96484375 C-363.34134964 32.75689178 -362.650961 32.54893982 -361.93965149 32.33468628 C-353.32892774 29.78694607 -344.61460341 27.64047 -335.88720703 25.53515625 C-334.55619965 25.21266907 -334.55619965 25.21266907 -333.19830322 24.88366699 C-274.72954915 10.75906832 -215.22083965 2.91657881 -155.19970703 -0.58984375 C-154.32811951 -0.64205078 -153.45653198 -0.69425781 -152.55853271 -0.74804688 C-102.17927579 -3.74644034 -50.2556446 -5.45438217 0 0 Z " fill="#414143" transform="translate(1033.19970703125,341.58984375)"/>
<path d="M0 0 C0.89315918 0.30099609 1.78631836 0.60199219 2.70654297 0.91210938 C48.51564359 16.67774856 90.06832134 43.46444566 125.7265625 75.94921875 C127.84763649 77.86255869 130.00974725 79.71433052 132.1875 81.5625 C135.49997656 84.44435461 138.3268941 87.56292364 141.16015625 90.91015625 C143.13761436 93.15631356 145.22961266 95.22660347 147.375 97.3125 C151.41567265 101.31228895 155.03375391 105.52215791 158.578125 109.96484375 C160.25408987 112.06520617 161.94396815 114.13534542 163.671875 116.19140625 C196.47771068 155.610276 218.71770984 203.41868009 231 253 C331.8868854 248.07814094 432.17899077 237.93946596 531.43164062 218.87402344 C535.35259755 218.1215227 539.27687554 217.38850864 543.203125 216.6640625 C638.1012591 199.05477434 732.29437143 171.73593621 922.34130859 85.51074219 C924.77282344 84.12908802 927.21737609 82.77838019 929.67578125 81.4453125 C941.81855736 74.86005779 953.42787276 67.53778571 965 60 C965.61601074 59.60039063 966.23202148 59.20078125 966.86669922 58.7890625 C988.98306864 44.40970591 1010.2997914 28.55520021 1030 11 C1030.66 11.33 1031.32 11.66 1032 12 C1021.51405613 43.2836934 1006.44232399 71.11689595 986 97 C984.83210938 98.48693359 984.83210938 98.48693359 983.640625 100.00390625 C978.49275897 106.42048395 972.98699345 112.47988613 967.38525391 118.49707031 C966.04661905 119.94942071 964.73179801 121.4236095 963.41796875 122.8984375 C951.68230253 136.02408518 938.54887724 147.77930368 925 159 C924.41428223 159.48533203 923.82856445 159.97066406 923.22509766 160.47070312 C886.14729821 191.01838267 844.47705514 215.61090736 801.85986328 237.52832031 C800.03091537 238.4694931 798.20359985 239.41384921 796.37841797 240.36230469 C748.11908355 265.40629089 696.6584053 284.31275846 645 301 C643.7615332 301.4017041 642.52306641 301.8034082 641.24707031 302.21728516 C598.74692221 315.93021444 555.29466367 327.03177537 511.625 336.3125 C510.20621048 336.61415573 510.20621048 336.61415573 508.75875854 336.92190552 C418.6802114 355.99390421 326.12790417 369.28484835 234 372 C231.97267873 377.8567059 230.23808728 383.72337615 228.65527344 389.71435547 C220.1141451 421.746061 204.04839233 449.32248841 182 474 C181.53706543 474.51933105 181.07413086 475.03866211 180.59716797 475.57373047 C171.37009178 485.87809569 161.87656485 495.42089136 151 504 C150.03578125 504.78117187 149.0715625 505.56234375 148.078125 506.3671875 C98.13489413 546.04290136 31.37911317 564.81974839 -32 562 C-33.08732422 561.95601074 -34.17464844 561.91202148 -35.29492188 561.86669922 C-107.81956325 558.63530044 -179.38128834 531.42771767 -236 486 C-236.53689453 485.57348145 -237.07378906 485.14696289 -237.62695312 484.70751953 C-243.4053379 480.11277164 -248.9696558 475.31670695 -254.41796875 470.3359375 C-256.52109231 468.43326293 -258.64991251 466.57500442 -260.796875 464.72265625 C-265.05782515 461.0016159 -269.07516084 457.07304385 -273.0625 453.0625 C-273.73087891 452.39798828 -274.39925781 451.73347656 -275.08789062 451.04882812 C-279.59700188 446.5309528 -283.85754788 441.85495148 -288 437 C-288.53906982 436.37295166 -289.07813965 435.74590332 -289.63354492 435.09985352 C-317.85023386 402.07055469 -339.96303956 363.91194597 -353.79296875 322.69921875 C-354.08260498 321.87212402 -354.37224121 321.0450293 -354.6706543 320.19287109 C-355.20285006 318.66537369 -355.70819429 317.12810152 -356.17895508 315.58056641 C-357.21953623 312.63172919 -358.06381774 310.5664647 -360.80599976 308.90722656 C-366.6111122 306.49294968 -372.4731572 304.38126583 -378.4453125 302.41796875 C-380.49290474 301.73465432 -382.5403431 301.05087862 -384.58764648 300.36669922 C-385.6534494 300.01186462 -386.71925232 299.65703003 -387.81735229 299.29144287 C-434.27688576 283.78535657 -479.32197479 265.6861445 -523.18798828 243.890625 C-526.54341105 242.22363566 -529.9086313 240.57749481 -533.27734375 238.9375 C-546.48451499 232.47634691 -559.30983231 225.42275465 -572 218 C-572.92361328 217.46036621 -573.84722656 216.92073242 -574.79882812 216.36474609 C-597.69255863 202.90281426 -619.69436151 187.84707715 -641 172 C-641.88099365 171.34644531 -641.88099365 171.34644531 -642.77978516 170.6796875 C-650.9880977 164.56157401 -658.77570008 158.01691271 -666.484375 151.28613281 C-667.9196787 150.06815925 -669.41195087 148.91826344 -670.90625 147.7734375 C-671.5971875 147.18820312 -672.288125 146.60296875 -673 146 C-673 145.34 -673 144.68 -673 144 C-673.55776123 143.76748535 -674.11552246 143.5349707 -674.69018555 143.29541016 C-677.59953496 141.66376361 -679.60348491 139.63827874 -681.95703125 137.2734375 C-682.42308273 136.8069278 -682.88913422 136.34041809 -683.36930847 135.85977173 C-684.35413345 134.8719326 -685.33653381 133.88167105 -686.31665039 132.88916016 C-687.79208043 131.39566953 -689.2751574 129.9101425 -690.75976562 128.42578125 C-696.04416308 123.12216054 -701.17647226 117.73063893 -706 112 C-706.51989502 111.38688965 -707.03979004 110.7737793 -707.57543945 110.14208984 C-715.68382617 100.50207681 -723.12853481 90.5550173 -730 80 C-730.78141357 78.80697266 -730.78141357 78.80697266 -731.57861328 77.58984375 C-765.70894769 25.12218384 -765.70894769 25.12218384 -762.59765625 6.60546875 C-762.40042969 6.07566406 -762.20320312 5.54585937 -762 5 C-757.17660708 8.49932428 -752.57988468 12.17856214 -748.0625 16.0625 C-705.04545145 52.84014451 -654.64238955 82.09837466 -604 107 C-604 107.66 -604 108.32 -604 109 C-602.700625 109.1546875 -602.700625 109.1546875 -601.375 109.3125 C-597.83316877 110.03398414 -595.15687958 111.27123261 -592 113 C-592 113.66 -592 114.32 -592 115 C-591.44094971 115.17305664 -590.88189941 115.34611328 -590.3059082 115.52441406 C-585.01586296 117.21624777 -580.14712201 119.27047718 -575.1875 121.75 C-523.79831185 146.62234605 -468.65647723 164.82991351 -414 181 C-413.15975281 181.24893005 -412.31950562 181.49786011 -411.45379639 181.7543335 C-406.43409572 183.23791774 -401.40877181 184.69979868 -396.37472534 186.13397217 C-394.80897057 186.58135367 -393.24441622 187.03296105 -391.68118286 187.48907471 C-389.52030253 188.11735862 -387.3550348 188.72716571 -385.1875 189.33203125 C-383.96417969 189.67983643 -382.74085938 190.0276416 -381.48046875 190.38598633 C-376.15242288 191.32594392 -372.51791612 190.76741894 -367.69311523 188.328125 C-364.46775316 185.53988706 -363.8722086 183.86496435 -362.91015625 179.75 C-362.60505127 178.5122583 -362.29994629 177.2745166 -361.9855957 175.99926758 C-361.83547028 175.34697174 -361.68534485 174.6946759 -361.53067017 174.02261353 C-360.73586349 170.58884767 -359.85366092 167.17723593 -358.984375 163.76171875 C-358.81408279 163.08445236 -358.64379059 162.40718597 -358.46833801 161.70939636 C-349.27154589 125.30231566 -329.51345256 91.38871599 -304 64 C-302.78661781 62.60855334 -301.57802197 61.21291361 -300.375 59.8125 C-257.25279837 10.445014 -192.49134621 -13.80074466 -128.59375 -18.59765625 C-84.9254428 -21.46044834 -41.29323516 -13.91982727 0 0 Z " fill="#353535" transform="translate(911,1116)"/>
<path d="M0 0 C26.32572508 26.14369995 48.50933707 60.30086973 67.70898438 91.88916016 C69.16060764 94.26259714 70.63358538 96.62198479 72.109375 98.98046875 C79.31924947 110.51733446 86.28730223 122.16714472 93 134 C93.40250977 134.70592285 93.80501953 135.4118457 94.21972656 136.13916016 C136.66871351 210.74594465 167.76833457 291.19733357 207 476 C207.27070312 477.92247559 207.27070312 477.92247559 207.546875 479.88378906 C210.39161685 500.673702 211.50393605 521.67035514 212.84524536 542.59991455 C212.99275363 544.88761628 213.14419653 547.17502432 213.29663086 549.46240234 C213.79986603 557.09863448 214.22746204 564.72158338 214.3125 572.375 C214.34150391 573.26832031 214.37050781 574.16164063 214.40039062 575.08203125 C214.50081469 585.7269826 210.36322829 593.31295135 203.8125 601.4375 C203.23443604 602.17194336 202.65637207 602.90638672 202.06079102 603.66308594 C200.38521886 605.78474744 198.69407461 607.89310561 197 610 C196.19820312 611.01707031 195.39640625 612.03414062 194.5703125 613.08203125 C185.09699927 624.93234798 174.44824388 635.64556295 163.75 646.375 C163.23057831 646.89710052 162.71115662 647.41920105 162.17599487 647.9571228 C156.30001508 653.85604885 150.38107054 659.64177261 144 665 C143.35643555 665.54495117 142.71287109 666.08990234 142.04980469 666.65136719 C75.55241544 722.62681082 -3.71317114 763.13463484 -123.8203125 808.48925781 C-128.24696849 810.08462744 -132.6595067 811.71754941 -137.06640625 813.36669922 C-139 814 -139 814 -141 814 C-140.41693925 802.30066973 -139.60389768 790.65057912 -138.51171875 778.98828125 C-138.36556074 777.40351935 -138.21963717 775.81873581 -138.07392883 774.2339325 C-137.76918639 770.927002 -137.46225468 767.62028498 -137.15356445 764.3137207 C-136.77027625 760.2072185 -136.39151228 756.10031587 -136.01427746 751.99325371 C-133.83742141 728.31186959 -131.48461589 704.65100514 -129 681 C-128.91634312 680.20350163 -128.83268623 679.40700325 -128.74649429 678.58636856 C-127.45526801 666.30540955 -126.14082803 654.02699815 -124.8125 641.75 C-124.67072641 640.43894413 -124.67072641 640.43894413 -124.52608871 639.10140228 C-119.41225291 591.84510754 -113.96591762 544.61724014 -107.6875 497.5 C-107.57620758 496.66438538 -107.46491516 495.82877075 -107.35025024 494.96783447 C-104.19472663 471.40599642 -100.58189348 447.90807146 -96.8125 424.4375 C-96.62091309 423.24399933 -96.42932617 422.05049866 -96.23193359 420.8208313 C-92.15356752 395.48557128 -87.70168586 370.22653164 -83 345 C-82.81908813 344.02838928 -82.63817627 343.05677856 -82.45178223 342.0557251 C-74.09320492 297.22838085 -65.36757466 252.41121111 -55 208 C-54.78122192 207.06150208 -54.56244385 206.12300415 -54.33703613 205.15606689 C-41.38159325 149.68558748 -27.07839107 94.5093552 -12.0625 39.5625 C-11.78921875 38.55784698 -11.5159375 37.55319397 -11.234375 36.51809692 C-7.87591115 24.20257192 -4.17175519 12.06501618 0 0 Z " fill="#333334" transform="translate(1786,453)"/>
<path d="M0 0 C3.08248101 2.7700674 6.09351668 5.59805207 9.078125 8.47265625 C10.0671582 9.42084229 10.0671582 9.42084229 11.07617188 10.38818359 C20.0264466 19.01414344 28.44029981 27.74013668 35.80859375 37.76318359 C37.08940511 39.48784536 38.40686474 41.17828869 39.734375 42.8671875 C72.91350139 85.69266048 90.3896931 143.77202169 84.30664062 197.76879883 C79.22992171 236.59798525 64.11373987 271.97828518 37.078125 300.47265625 C36.02730968 301.7149753 34.9843941 302.96406439 33.953125 304.22265625 C22.38632093 317.84703773 5.86745587 328.44177666 -9.921875 336.47265625 C-10.58622559 336.81635254 -11.25057617 337.16004883 -11.93505859 337.51416016 C-62.39100656 363.37935744 -122.12853195 363.89031354 -175.52294922 347.33886719 C-185.61607282 344.06230952 -195.30524065 339.94079046 -204.921875 335.47265625 C-205.98196777 334.98394043 -205.98196777 334.98394043 -207.06347656 334.48535156 C-225.4056357 325.93866708 -242.20642908 315.18259479 -257.921875 302.47265625 C-258.47327148 302.03695313 -259.02466797 301.60125 -259.59277344 301.15234375 C-274.87201918 289.07328808 -289.24280952 274.91549642 -300.69628906 259.14257812 C-301.9679479 257.40987963 -303.27977297 255.71423053 -304.6015625 254.01953125 C-312.47150184 243.80523576 -318.85972823 232.83731436 -324.921875 221.47265625 C-325.54473389 220.30524902 -325.54473389 220.30524902 -326.18017578 219.11425781 C-350.70807918 172.28549961 -357.62103063 114.46536323 -341.95703125 63.68530273 C-326.96077792 17.76940952 -295.35616905 -18.74997518 -252.4921875 -40.83984375 C-241.01862904 -46.57662298 -229.22082094 -50.91549518 -216.921875 -54.52734375 C-215.85235596 -54.84227783 -215.85235596 -54.84227783 -214.76123047 -55.16357422 C-140.49930741 -76.32259774 -56.93581224 -49.24795524 0 0 Z " fill="#AFADB3" transform="translate(961.921875,1256.52734375)"/>
<path d="M0 0 C3.08248101 2.7700674 6.09351668 5.59805207 9.078125 8.47265625 C10.0671582 9.42084229 10.0671582 9.42084229 11.07617188 10.38818359 C20.0264466 19.01414344 28.44029981 27.74013668 35.80859375 37.76318359 C37.08940511 39.48784536 38.40686474 41.17828869 39.734375 42.8671875 C72.91350139 85.69266048 90.3896931 143.77202169 84.30664062 197.76879883 C79.22992171 236.59798525 64.11373987 271.97828518 37.078125 300.47265625 C36.02730968 301.7149753 34.9843941 302.96406439 33.953125 304.22265625 C22.38632093 317.84703773 5.86745587 328.44177666 -9.921875 336.47265625 C-10.58622559 336.81635254 -11.25057617 337.16004883 -11.93505859 337.51416016 C-62.39100656 363.37935744 -122.12853195 363.89031354 -175.52294922 347.33886719 C-185.61607282 344.06230952 -195.30524065 339.94079046 -204.921875 335.47265625 C-205.98196777 334.98394043 -205.98196777 334.98394043 -207.06347656 334.48535156 C-225.4056357 325.93866708 -242.20642908 315.18259479 -257.921875 302.47265625 C-258.47327148 302.03695313 -259.02466797 301.60125 -259.59277344 301.15234375 C-274.87201918 289.07328808 -289.24280952 274.91549642 -300.69628906 259.14257812 C-301.9679479 257.40987963 -303.27977297 255.71423053 -304.6015625 254.01953125 C-312.47150184 243.80523576 -318.85972823 232.83731436 -324.921875 221.47265625 C-325.54473389 220.30524902 -325.54473389 220.30524902 -326.18017578 219.11425781 C-350.70807918 172.28549961 -357.62103063 114.46536323 -341.95703125 63.68530273 C-326.96077792 17.76940952 -295.35616905 -18.74997518 -252.4921875 -40.83984375 C-241.01862904 -46.57662298 -229.22082094 -50.91549518 -216.921875 -54.52734375 C-215.85235596 -54.84227783 -215.85235596 -54.84227783 -214.76123047 -55.16357422 C-140.49930741 -76.32259774 -56.93581224 -49.24795524 0 0 Z M-192.921875 -6.52734375 C-193.64262207 -6.36105469 -194.36336914 -6.19476562 -195.10595703 -6.0234375 C-232.08077716 2.61441795 -263.28823204 25.23545064 -283.36328125 57.31640625 C-306.19593539 95.19937058 -305.50374805 139.54724733 -295.5703125 181.3125 C-286.26257921 217.77411716 -263.39707144 250.40031147 -233.921875 273.47265625 C-233.09405518 274.12306885 -233.09405518 274.12306885 -232.24951172 274.78662109 C-201.51182797 298.73593187 -164.96577953 311.75432377 -126.046875 311.91015625 C-125.31533203 311.91642029 -124.58378906 311.92268433 -123.83007812 311.92913818 C-83.20161303 312.1493003 -41.89355969 295.10238136 -12.921875 266.84765625 C14.23093915 239.45892062 25.44230365 202.82837216 25.46533203 165.00976562 C25.38706326 151.74609839 23.59972561 139.2823031 20.078125 126.47265625 C19.85350586 125.64926758 19.62888672 124.82587891 19.39746094 123.97753906 C6.35185285 77.85267439 -27.52791503 37.69535153 -68.94116211 14.27050781 C-71.25921014 12.98729848 -73.58653693 11.72408214 -75.921875 10.47265625 C-76.53788574 10.13927246 -77.15389648 9.80588867 -77.78857422 9.46240234 C-111.74194468 -8.57743036 -155.23413685 -15.83703059 -192.921875 -6.52734375 Z " fill="#B0ADB6" transform="translate(961.921875,1256.52734375)"/>
<path d="M0 0 C0.84375687 -0.00979385 1.68751373 -0.01958771 2.55683899 -0.02967834 C46.88167055 -0.43761372 87.86962254 7.77225905 127.91796875 27.23828125 C129.09238525 27.80603271 129.09238525 27.80603271 130.29052734 28.38525391 C148.41594727 37.25466109 165.28674487 48.49344721 180.91796875 61.23828125 C181.43246582 61.65126465 181.94696289 62.06424805 182.47705078 62.48974609 C190.69095256 69.11547657 198.24663139 76.36614514 205.73046875 83.80078125 C207.03757812 85.09399292 207.03757812 85.09399292 208.37109375 86.41333008 C214.30759725 92.37863511 219.70594027 98.6338376 224.91796875 105.23828125 C225.45204346 105.90770752 225.98611816 106.57713379 226.53637695 107.2668457 C235.2793268 118.32889625 242.77123402 130.09646393 249.91796875 142.23828125 C250.30968262 142.90150391 250.70139648 143.56472656 251.10498047 144.24804688 C265.89281537 169.63757993 274.94218119 198.4116112 279.91796875 227.23828125 C280.05074219 228.00011719 280.18351562 228.76195312 280.3203125 229.546875 C288.64786348 280.54142873 277.46148209 336.73313942 248.00390625 379.34765625 C241.27070821 388.67830522 234.23300288 397.4834985 226.28271484 405.80615234 C224.96848408 407.18527178 223.67136214 408.58063338 222.375 409.9765625 C206.20033441 426.88532789 186.01103224 439.40755282 164.91796875 449.23828125 C163.77972656 449.77195312 162.64148438 450.305625 161.46875 450.85546875 C148.19684656 456.80547424 134.40770496 460.84786611 120.23046875 463.98828125 C118.89737671 464.28617554 118.89737671 464.28617554 117.53735352 464.59008789 C102.41344098 467.79087968 87.71380275 468.56165444 72.30175781 468.49902344 C69.18664879 468.48834528 66.0721224 468.49895601 62.95703125 468.51171875 C46.10082012 468.52472663 29.4213234 467.63648455 12.91796875 463.98828125 C11.91435303 463.77067139 10.9107373 463.55306152 9.87670898 463.32885742 C-48.92881842 450.22118115 -106.0972429 416.37619468 -143.08203125 368.23828125 C-144.07180455 366.9991109 -145.06278025 365.76090037 -146.0546875 364.5234375 C-181.45856146 319.88726081 -199.24503654 267.08229951 -199.39453125 210.36328125 C-199.39838837 209.45166229 -199.40224548 208.54004333 -199.40621948 207.60079956 C-199.50939568 158.06786117 -185.15986147 109.96390878 -152.08203125 72.23828125 C-151.355 71.40167969 -150.62796875 70.56507812 -149.87890625 69.703125 C-112.59185876 27.52704156 -56.67165928 0.54823682 0 0 Z M-127.08203125 82.23828125 C-128.41145073 83.36790358 -129.74466843 84.49307437 -131.08203125 85.61328125 C-160.59140406 111.58152932 -179.01199327 152.54649158 -183.08203125 191.23828125 C-183.19160156 192.181875 -183.30117188 193.12546875 -183.4140625 194.09765625 C-188.8325574 249.87203045 -171.45081616 308.81180641 -136.08544922 352.42993164 C-135.18905059 353.51459653 -134.28905356 354.59629895 -133.38525391 355.67480469 C-132.12100573 357.19152355 -130.88803364 358.73414298 -129.65625 360.27734375 C-117.23566393 375.53747283 -103.07931735 389.75058998 -87.08203125 401.23828125 C-86.42138672 401.72200195 -85.76074219 402.20572266 -85.08007812 402.70410156 C-70.485818 413.38266353 -55.43012631 422.50950474 -39.08203125 430.23828125 C-38.46312012 430.53444336 -37.84420898 430.83060547 -37.20654297 431.13574219 C-13.96674842 442.15667569 11.38060975 449.23799044 36.91796875 452.23828125 C37.8615625 452.34914063 38.80515625 452.46 39.77734375 452.57421875 C78.13062895 456.25056992 117.2686103 450.21614427 151.91796875 433.23828125 C152.58699219 432.91069824 153.25601562 432.58311523 153.9453125 432.24560547 C174.62659485 421.97151297 194.38431253 407.25494876 208.91796875 389.23828125 C209.66433594 388.32949219 210.41070313 387.42070313 211.1796875 386.484375 C241.78388879 348.09700164 255.03499745 299.5136559 250.23046875 250.80078125 C245.04622938 205.72106849 227.12838568 164.5980607 198.91796875 129.23828125 C198.14453125 128.25730469 197.37109375 127.27632812 196.57421875 126.265625 C183.83362967 110.64227605 169.29512681 96.02650477 152.91796875 84.23828125 C151.77132003 83.38651324 150.6255015 82.53362662 149.48046875 81.6796875 C141.28886673 75.63224992 132.77893477 70.24729713 123.91796875 65.23828125 C122.85715088 64.635 122.85715088 64.635 121.77490234 64.01953125 C45.06702621 20.83233906 -60.41643751 19.25586949 -127.08203125 82.23828125 Z " fill="#010101" transform="translate(796.08203125,1161.76171875)"/>
<path d="M0 0 C34.03640373 29.5504342 58.89062395 70.65761398 64 116 C64.25440308 120.85536833 64.33028349 125.69150458 64.31567383 130.55273438 C64.31252371 132.73358722 64.33603414 134.91306443 64.36132812 137.09375 C64.40605517 147.04972363 63.16527296 156.29397881 61 166 C60.73376831 167.27206299 60.73376831 167.27206299 60.4621582 168.56982422 C54.98803045 193.69933829 41.59282033 214.72103223 24 233 C23.14728516 233.94746094 23.14728516 233.94746094 22.27734375 234.9140625 C9.2373498 248.98791787 -9.22042193 258.60502486 -27 265 C-28.0521167 265.38285156 -28.0521167 265.38285156 -29.12548828 265.7734375 C-73.06230521 281.59735017 -118.55017406 279.37718131 -160.9375 259.6875 C-173.45886149 253.64311535 -185.35699956 245.9502051 -196 237 C-196.53222168 236.5551123 -197.06444336 236.11022461 -197.61279297 235.65185547 C-236.0857883 203.41431968 -258.57780535 160.13148585 -263 110 C-263.98584013 93.72107618 -264.23958852 76.83465362 -260 61 C-259.80132324 60.21802246 -259.60264648 59.43604492 -259.39794922 58.63037109 C-250.21447366 23.05902121 -227.79960243 -6.66318992 -196.26391602 -25.56298828 C-133.24890942 -61.87565191 -53.6155301 -45.87106464 0 0 Z M-217.40234375 29.4765625 C-239.12831684 53.0287768 -247.41324804 84.58286258 -246.19091797 116.01855469 C-243.79711074 153.40112996 -225.54659497 186.47084369 -200 213 C-199.13375 213.94359375 -199.13375 213.94359375 -198.25 214.90625 C-175.65137386 238.86079371 -139.61976151 256.55567736 -107 260 C-106.19046875 260.10828125 -105.3809375 260.2165625 -104.546875 260.328125 C-80.50095651 263.13102347 -54.51888355 260.73757284 -33 249 C-31.37191406 248.32710937 -31.37191406 248.32710937 -29.7109375 247.640625 C-25.98594404 246.06169604 -22.5786643 244.07235561 -19.1875 241.875 C-18.5800293 241.48175537 -17.97255859 241.08851074 -17.34667969 240.68334961 C-11.73000369 236.96137553 -6.83046733 232.69451047 -2 228 C-1.18015625 227.25363281 -0.3603125 226.50726562 0.484375 225.73828125 C21.30495044 206.17857916 31.97656978 177.19085067 33 149 C33.6397671 107.92695234 17.24656605 70.47254548 -11 41 C-12.2065625 39.69869141 -12.2065625 39.69869141 -13.4375 38.37109375 C-29.98535172 21.05987387 -51.37638236 7.76228358 -74 0 C-74.63180176 -0.22236328 -75.26360352 -0.44472656 -75.91455078 -0.67382812 C-86.11658882 -4.23427093 -96.31784931 -6.43809044 -107 -8 C-107.88945313 -8.13277344 -108.77890625 -8.26554687 -109.6953125 -8.40234375 C-149.95521517 -13.38365374 -189.49486031 0.09208133 -217.40234375 29.4765625 Z " fill="#020202" transform="translate(923,1292)"/>
<path d="M0 0 C0.99 0.495 0.99 0.495 2 1 C1.8548999 1.55676926 1.7097998 2.11353851 1.56030273 2.68717957 C-5.3078298 29.06892211 -12.06649199 55.43418427 -17.57337952 82.13728333 C-18.7330112 87.75644457 -19.94405432 93.36327945 -21.16796875 98.96875 C-34.13399108 158.6634862 -42.93642253 219.23128776 -49 280 C-49.0887439 280.88554565 -49.17748779 281.77109131 -49.2689209 282.68347168 C-51.86292447 308.72736309 -53.63554397 334.81420388 -55.1875 360.9375 C-55.23020649 361.65551033 -55.27291298 362.37352066 -55.3169136 363.11328888 C-55.60569342 367.98018508 -55.8883922 372.84741102 -56.16796875 377.71484375 C-56.27239792 379.51602409 -56.27239792 379.51602409 -56.37893677 381.35359192 C-56.59779906 385.23516164 -56.80186061 389.11733314 -57 393 C-57.06517665 394.24161172 -57.06517665 394.24161172 -57.13167 395.5083065 C-57.91136673 410.60684483 -58.1349761 425.66058445 -58.09765625 440.77734375 C-58.09578437 443.05375639 -58.09436412 445.33016945 -58.09336853 447.60658264 C-58.08960386 453.51312429 -58.07982755 459.41964019 -58.06866455 465.32617188 C-58.05831807 471.38736625 -58.05384296 477.44856491 -58.04882812 483.50976562 C-58.03819794 495.33985488 -58.02119715 507.16992528 -58 519 C-62.1528326 517.0921601 -65.01205752 514.27646208 -68.19921875 511.06640625 C-69.09094536 510.17754982 -69.09094536 510.17754982 -70.00068665 509.27073669 C-71.25967359 508.01310976 -72.51614228 506.7529575 -73.77026367 505.49047852 C-75.65658363 503.59358959 -77.55314398 501.70743056 -79.45117188 499.82226562 C-86.42740809 492.8541825 -92.91329369 485.76709983 -99 478 C-100.09434116 476.66264501 -101.19169405 475.32774497 -102.29296875 473.99609375 C-128.40433096 442.01436349 -116.92462761 396.72071139 -113.0567627 357.76516724 C-110.78535713 335.43954634 -107.4662628 313.36527529 -103.41992188 291.29638672 C-103.01866396 289.10206581 -102.6235044 286.90674418 -102.23046875 284.7109375 C-98.61968464 264.60728106 -94.11638704 244.76690217 -89 225 C-88.82015564 224.30406738 -88.64031128 223.60813477 -88.45501709 222.89111328 C-74.3348491 168.45752713 -55.29135219 115.67344917 -31.6171875 64.6796875 C-29.93693582 61.0553024 -28.29371154 57.41901966 -26.6953125 53.7578125 C-22.16496332 43.40101424 -17.14539663 33.48836261 -11.578125 23.6484375 C-7.44662248 16.29753144 -3.88073019 8.92200801 -1 1 C-0.67 0.67 -0.34 0.34 0 0 Z " fill="#565560" transform="translate(217,590)"/>
<path d="M0 0 C0.66 0.33 1.32 0.66 2 1 C4.13561533 64.8713261 -25.89578494 121.50972871 -68.70410156 167.49487305 C-73.87906399 172.95467307 -79.17143895 178.30331448 -84.46932983 183.64355469 C-85.51390436 184.69683317 -86.55710681 185.75147457 -87.5987854 186.80761719 C-93.65080337 192.93364164 -99.81357596 198.66707458 -106.55493164 204.04736328 C-109.14353502 206.11462737 -111.64076096 208.26296708 -114.13012695 210.44726562 C-144.45357048 237.02959768 -179.78833618 258.62169467 -215 278 C-216.60657471 278.88558594 -216.60657471 278.88558594 -218.24560547 279.7890625 C-295.19602643 322.03370884 -378.38016565 352.3696666 -655 415 C-656.27842773 415.19126465 -657.55685547 415.3825293 -658.87402344 415.57958984 C-690.95322866 420.36546962 -723.26521652 423.38780921 -755.52716064 426.64672852 C-758.57328122 426.95659241 -761.61857731 427.2730711 -764.66357422 427.59375 C-776.11906618 428.791051 -787.58262325 429.67992306 -799.07568359 430.43261719 C-802.02610809 430.62671758 -804.97592482 430.82871818 -807.92578125 431.03125 C-817.29485306 431.66099961 -826.60509669 432.24527833 -836 432 C-835.67 430.02 -835.34 428.04 -835 426 C-833.69482422 425.89977539 -832.38964844 425.79955078 -831.04492188 425.69628906 C-803.0626848 423.53920565 -775.11545834 421.21146355 -747.20782471 418.23382568 C-745.11274763 418.01194084 -743.01722286 417.79514908 -740.92138672 417.58056641 C-696.01217245 412.94942589 -651.1073424 406.52759289 -606.79003906 397.92333984 C-602.91632456 397.17239337 -599.03816643 396.44955763 -595.15675354 395.73959351 C-569.87732109 391.11335327 -544.93756581 385.19016377 -520 379 C-519.17528198 378.79570374 -518.35056396 378.59140747 -517.50085449 378.38092041 C-442.26022694 359.7214444 -368.13934857 335.73074967 -298.02392578 302.43408203 C-294.98892962 300.99474993 -291.9462066 299.57281308 -288.90234375 298.15234375 C-256.75733558 283.05280726 -225.49005112 265.81460135 -196 246 C-195.22188965 245.47809082 -194.4437793 244.95618164 -193.64208984 244.41845703 C-183.89592716 237.86138804 -174.30967526 231.16625488 -165 224 C-163.95714844 223.21238281 -162.91429687 222.42476562 -161.83984375 221.61328125 C-154.6364746 216.15794692 -147.7079478 210.44701351 -140.85791016 204.5546875 C-139.48593277 203.40662548 -138.09132645 202.28548091 -136.68505859 201.1796875 C-128.87722725 194.99469432 -121.86127329 188.16741421 -114.84716797 181.10791016 C-112.8781685 179.12818576 -110.89869273 177.15939246 -108.91796875 175.19140625 C-101.81675307 168.09753292 -95.20861093 160.89595668 -89 153 C-87.44049815 151.1849197 -85.87866188 149.37183674 -84.3125 147.5625 C-60.21838376 118.57485008 -39.05182443 81.63329772 -31.82421875 44.3359375 C-29.40986278 31.88373471 -25.26268927 25.62228827 -15.59423828 17.39550781 C-13.56421264 15.61853591 -11.80539409 13.68153563 -10.0625 11.625 C-9.5571875 11.02945312 -9.051875 10.43390625 -8.53125 9.8203125 C-8.0259375 9.21960937 -7.520625 8.61890625 -7 8 C-5.69007799 6.49774817 -4.37758425 4.99773484 -3.0625 3.5 C-2.47597656 2.8296875 -1.88945313 2.159375 -1.28515625 1.46875 C-0.64900391 0.74171875 -0.64900391 0.74171875 0 0 Z " fill="#CBC7DD" transform="translate(1991,1077)"/>
<path d="M0 0 C5.1798908 4.18799682 9.58817064 8.7270963 13.984375 13.73046875 C15.85723749 15.9241271 15.85723749 15.9241271 17.56616211 17.40991211 C20.03675896 20.14973797 20.18221505 23.84298561 20.8125 27.375 C28.8818821 68.53516528 46.96539008 106.18199099 73 139 C73.76828125 139.969375 74.5365625 140.93875 75.328125 141.9375 C77.52159822 144.65172585 79.75725881 147.3264063 82 150 C82.76183594 150.94746094 83.52367187 151.89492187 84.30859375 152.87109375 C91.41869946 161.57837732 99.30892535 169.49725371 107.25 177.4375 C107.817258 178.00566437 108.38451599 178.57382874 108.96896362 179.15921021 C115.13143203 185.32056643 121.33256463 191.37997949 128 197 C129.05639893 197.91228662 130.11240725 198.82502581 131.16796875 199.73828125 C138.59752837 206.07214902 146.18744221 212.14411904 154 218 C154.70398926 218.52996582 155.40797852 219.05993164 156.13330078 219.60595703 C167.49918242 228.14438366 179.06828273 236.27291614 191 244 C191.73089844 244.47614746 192.46179688 244.95229492 193.21484375 245.44287109 C264.70883271 291.88569301 344.06871571 324.98478739 425 351 C424.3125 352.9375 424.3125 352.9375 423 355 C419.40258149 356.09591655 417.03260468 356.01312578 413.48974609 354.85107422 C412.6207518 354.57211807 411.75175751 354.29316193 410.85643005 354.00575256 C409.45409874 353.53497536 409.45409874 353.53497536 408.0234375 353.0546875 C407.0378334 352.73354477 406.05222931 352.41240204 405.03675842 352.08152771 C401.81170324 351.02574577 398.59320811 349.95145755 395.375 348.875 C393.14074912 348.13553167 390.90645518 347.39619342 388.67211914 346.65698242 C320.6026953 324.02634679 253.64954275 295.82931921 192 259 C190.16047772 257.91091517 188.32064047 256.82236214 186.48046875 255.734375 C177.48128696 250.39646673 168.62206513 244.93407653 160 239 C158.79601247 238.18554776 157.59155618 237.37178818 156.38671875 236.55859375 C136.80616941 223.29014665 117.79065465 209.19668963 100.37109375 193.16015625 C99.06346095 191.96885322 97.74787704 190.78547804 96.40063477 189.63916016 C90.23588626 184.37533285 84.5105087 178.69662844 78.7824707 172.96777344 C77.07456944 171.26205402 75.35881955 169.56450973 73.64257812 167.8671875 C66.97325947 161.23203649 60.83599185 154.39289072 55 147 C53.88081579 145.64729445 52.75749924 144.29799059 51.62890625 142.953125 C44.46307669 134.33109488 37.95057316 125.50135765 32 116 C31.6189209 115.39333496 31.2378418 114.78666992 30.84521484 114.16162109 C28.14047905 109.82505492 25.54153114 105.43397023 23 101 C22.6302002 100.35901367 22.26040039 99.71802734 21.87939453 99.05761719 C11.34936834 80.61065591 4.0380594 60.60716528 -1 40 C-1.19505127 39.20311768 -1.39010254 38.40623535 -1.59106445 37.58520508 C-3.03190251 31.13503846 -3.33415355 24.90817059 -3.3125 18.3125 C-3.32861328 17.31927734 -3.34472656 16.32605469 -3.36132812 15.30273438 C-3.36524401 9.40932289 -2.76934796 5.22449549 0 0 Z " fill="#E3E0EB" transform="translate(111,1084)"/>
<path d="M0 0 C2.20610472 2.20610472 2.70103109 3.57860761 3.70703125 6.49609375 C4.03928711 7.43340332 4.37154297 8.37071289 4.71386719 9.33642578 C5.25769043 10.87145752 5.25769043 10.87145752 5.8125 12.4375 C18.39491725 46.81799245 37.19064692 78.44038984 60 107 C60.73605469 107.92941406 61.47210937 108.85882812 62.23046875 109.81640625 C67.04110538 115.80203023 72.10844692 121.49447618 77.3359375 127.11328125 C79.64973883 129.6204648 81.88948201 132.17354394 84.125 134.75 C142.80078459 200.05046994 234.6637359 243.55838213 321.90942383 248.82788086 C328.85241078 249.15663261 335.80123411 249.14803984 342.75048828 249.13037109 C345.23346138 249.12503554 347.71625126 249.13034084 350.19921875 249.13671875 C361.49443781 249.14089659 372.72723567 248.69798922 384 248 C384 248.33 384 248.66 384 249 C313.74607507 259.6727939 240.55491542 244.62401391 177.90820312 211.98876953 C175.95184436 210.97504729 173.9846715 209.98491414 172.015625 208.99609375 C153.43060216 199.54889129 136.27622418 187.98791253 120 175 C119.071875 174.27296875 118.14375 173.5459375 117.1875 172.796875 C114.76935638 170.89026176 112.37970404 168.95434632 110 167 C109.04480469 166.21882813 108.08960938 165.43765625 107.10546875 164.6328125 C94.23779505 153.99239122 81.91208957 142.65106799 71 130 C69.54279869 128.41562476 68.0844266 126.83232568 66.625 125.25 C61.08993239 119.08290045 56.00048715 112.60318649 51 106 C50.4838916 105.31905273 49.9677832 104.63810547 49.43603516 103.93652344 C32.08643228 80.87766007 18.15352087 55.5920102 7 29 C6.29611118 27.45629901 5.58846951 25.91429642 4.875 24.375 C3.17319111 20.53292491 1.65522116 16.62398269 0.1875 12.6875 C-0.25207031 11.51574219 -0.69164062 10.34398437 -1.14453125 9.13671875 C-2.21571007 5.20906306 -1.76003466 3.52006931 0 0 Z " fill="#B2AEC9" transform="translate(542,1443)"/>
<path d="M0 0 C32.64580493 29.18976055 54.33389927 68.10240927 57.72265625 112.15625 C57.90172275 117.15877875 57.85206477 122.15245388 57.72265625 127.15625 C57.39265625 127.15625 57.06265625 127.15625 56.72265625 127.15625 C56.62561401 126.21495239 56.62561401 126.21495239 56.52661133 125.25463867 C51.63492256 79.15519581 32.24809998 35.70554243 -4.33984375 5.84375 C-42.08036388 -24.41019956 -86.93566888 -40.03259333 -135.52783203 -35.54345703 C-150.1033276 -33.66375208 -164.42173511 -29.54261073 -177.77734375 -23.40625 C-178.93234375 -22.890625 -180.08734375 -22.375 -181.27734375 -21.84375 C-181.93734375 -22.17375 -182.59734375 -22.50375 -183.27734375 -22.84375 C-125.63504419 -59.12512291 -49.35383201 -43.24503179 0 0 Z " fill="#9E9BA8" transform="translate(914.27734375,1304.84375)"/>
<path d="M0 0 C3.40601033 3.2660373 6.71603238 6.61196299 10 10 C12.25946046 12.27673463 14.51791814 14.5453785 16.8515625 16.74609375 C23.31110776 22.90684948 28.64237862 29.88956479 34 37 C34.42039551 37.55429688 34.84079102 38.10859375 35.27392578 38.6796875 C68.51634393 82.8093605 85.01675794 134.96211038 84 190 C83.67 190 83.34 190 83 190 C82.95512451 189.2565332 82.91024902 188.51306641 82.86401367 187.74707031 C79.80689242 138.33058972 67.61596778 91.64870463 38 51 C37.54302734 50.36336426 37.08605469 49.72672852 36.61523438 49.07080078 C22.43665461 29.38099363 6.27727369 10.85007829 -13 -4 C-14.26358527 -5.00319572 -15.52656184 -6.00715842 -16.7890625 -7.01171875 C-62.314648 -42.91020349 -119.18464408 -64.64687124 -177.4375 -64.25 C-178.19670746 -64.24822754 -178.95591492 -64.24645508 -179.73812866 -64.24462891 C-189.80849505 -64.21709001 -199.72677647 -63.87898113 -209.70703125 -62.4375 C-212.85032004 -62.01988631 -215.83386495 -61.92242242 -219 -62 C-216.2073633 -63.8617578 -215.1507265 -64.32598389 -212.0078125 -64.81640625 C-210.83762573 -65.0023938 -210.83762573 -65.0023938 -209.64379883 -65.19213867 C-208.81259521 -65.31435791 -207.9813916 -65.43657715 -207.125 -65.5625 C-206.26221436 -65.69180908 -205.39942871 -65.82111816 -204.51049805 -65.9543457 C-130.19553837 -76.79468933 -55.23477106 -49.58081811 0 0 Z " fill="#A2A0AB" transform="translate(979,1245)"/>
<path d="M0 0 C0.99 0.495 0.99 0.495 2 1 C-4.41161739 6.0057478 -10.85032738 10.9367416 -17.5 15.625 C-27.20345401 22.47637832 -36.59342238 29.74940997 -46 37 C-46.69222656 37.53334961 -47.38445312 38.06669922 -48.09765625 38.61621094 C-56.01968643 44.7366706 -63.74247458 51.05852192 -71.33935547 57.57763672 C-73.05623967 59.04817 -74.77948682 60.51096923 -76.50390625 61.97265625 C-82.73676479 67.26793409 -88.8724115 72.64425125 -94.87426758 78.20043945 C-97.62526946 80.74707854 -100.407696 83.24333975 -103.25 85.6875 C-106.73949335 88.7054402 -109.96277205 91.94132739 -113.1953125 95.23046875 C-115 97 -115 97 -117.5625 99 C-119.64221732 100.70643473 -121.15260386 102.2761481 -122.875 104.3125 C-128.30471975 110.67920679 -134.37555523 116.45364543 -140.31884766 122.3347168 C-141.73743552 123.73991398 -143.1505916 125.1505916 -144.5625 126.5625 C-146.39797539 128.39797539 -148.23937154 130.22652772 -150.0859375 132.05078125 C-155.44244056 137.35646207 -160.68734425 142.65505319 -165.56640625 148.41015625 C-167.50255561 150.55733007 -169.66635638 152.30280464 -172 154 C-170.64397927 150.99322527 -169.10904732 148.83123343 -166.83203125 146.453125 C-166.19434814 145.7818457 -165.55666504 145.11056641 -164.8996582 144.41894531 C-163.86651489 143.34531738 -163.86651489 143.34531738 -162.8125 142.25 C-161.34341422 140.7086533 -159.87467159 139.16697948 -158.40625 137.625 C-157.66375 136.84769531 -156.92125 136.07039062 -156.15625 135.26953125 C-154.20339887 133.21408468 -152.2685595 131.14417723 -150.34375 129.0625 C-143.06953461 121.19954415 -135.62611284 113.52289478 -128.0625 105.9375 C-126.7482605 104.61637207 -126.7482605 104.61637207 -125.4074707 103.26855469 C-120.95975524 98.83144417 -116.44298505 94.55308846 -111.67749023 90.45922852 C-109.68735167 88.72803099 -107.83177222 86.89719266 -106 85 C-102.8288397 81.78565269 -99.54417247 78.78249037 -96.12109375 75.83984375 C-93.77508942 73.80491181 -91.4826355 71.71709033 -89.1875 69.625 C-84.89526382 65.75088119 -80.47221326 62.07982452 -75.9765625 58.4453125 C-73.24805965 56.20378654 -70.57057903 53.91678959 -67.90307617 51.60375977 C-61.43039232 45.99315244 -54.80608296 40.64647173 -47.96582031 35.48876953 C-45.68546875 33.76179688 -43.41679379 32.02004113 -41.1484375 30.27734375 C-29.90480527 21.65142017 -18.53914316 13.22595279 -7 5 C-5.66399592 4.04566612 -4.32805461 3.09124435 -2.9921875 2.13671875 C-2.00476563 1.43160156 -1.01734375 0.72648437 0 0 Z " fill="#A19F90" transform="translate(508,271)"/>
<path d="M0 0 C0.77472656 0.00451172 1.54945312 0.00902344 2.34765625 0.01367188 C4.23180524 0.02530242 6.11591365 0.04323094 8 0.0625 C8 0.7225 8 1.3825 8 2.0625 C6.94941406 2.09988281 5.89882812 2.13726563 4.81640625 2.17578125 C3.39840623 2.24151635 1.98043897 2.30796096 0.5625 2.375 C-0.46907227 2.40883789 -0.46907227 2.40883789 -1.52148438 2.44335938 C-6.26453249 2.68602695 -10.22503687 3.6842968 -14.68530273 5.28491211 C-18.64848426 6.61628361 -22.714023 7.39070645 -26.8125 8.1875 C-27.68036133 8.35926758 -28.54822266 8.53103516 -29.44238281 8.70800781 C-35.93722721 9.95283285 -42.38549011 10.79361748 -49 11.0625 C-48.67 9.4125 -48.34 7.7625 -48 6.0625 C-46.9644397 5.94189209 -46.9644397 5.94189209 -45.90795898 5.81884766 C-42.75040725 5.44768244 -39.59398009 5.06766668 -36.4375 4.6875 C-34.80844727 4.49800781 -34.80844727 4.49800781 -33.14648438 4.3046875 C-27.56102638 3.62560446 -22.4024119 2.673401 -17 1.0625 C-11.28930148 0.14717635 -5.77491856 -0.06505541 0 0 Z " fill="#B2AFBD" transform="translate(1272,1531.9375)"/>
<path d="M0 0 C0.66 0.33 1.32 0.66 2 1 C-4.27648579 7.43927649 -4.27648579 7.43927649 -7.5 9.9375 C-9.60060795 11.67050156 -11.13342044 13.25266225 -12.875 15.3125 C-18.30471975 21.67920679 -24.37555523 27.45364543 -30.31884766 33.3347168 C-31.73743552 34.73991398 -33.1505916 36.1505916 -34.5625 37.5625 C-36.39797539 39.39797539 -38.23937154 41.22652772 -40.0859375 43.05078125 C-45.44244056 48.35646207 -50.68734425 53.65505319 -55.56640625 59.41015625 C-57.50255561 61.55733007 -59.66635638 63.30280464 -62 65 C-60.64397927 61.99322527 -59.10904732 59.83123343 -56.83203125 57.453125 C-55.87550659 56.44620605 -55.87550659 56.44620605 -54.8996582 55.41894531 C-54.210896 54.70319336 -53.52213379 53.98744141 -52.8125 53.25 C-51.34341422 51.7086533 -49.87467159 50.16697948 -48.40625 48.625 C-47.66375 47.84769531 -46.92125 47.07039063 -46.15625 46.26953125 C-44.20339887 44.21408468 -42.2685595 42.14417723 -40.34375 40.0625 C-33.06953461 32.19954415 -25.62611284 24.52289478 -18.0625 16.9375 C-17.18634033 16.05674805 -16.31018066 15.17599609 -15.4074707 14.26855469 C-10.43469519 9.30763605 -5.3618864 4.53871168 0 0 Z " fill="#AFAD9C" transform="translate(398,360)"/>
<path d="M0 0 C1.70712987 3.05509851 2.46334121 5.77380127 3.03515625 9.21875 C3.20466797 10.23453125 3.37417969 11.2503125 3.54882812 12.296875 C3.71833984 13.35390625 3.88785156 14.4109375 4.0625 15.5 C4.23587891 16.52609375 4.40925781 17.5521875 4.58789062 18.609375 C6.40113743 29.66948577 7.16142484 40.54866388 7.0625 51.75 C7.05798828 52.74515625 7.05347656 53.7403125 7.04882812 54.765625 C7.03723425 57.17715127 7.02092164 59.5885398 7 62 C6.67 62 6.34 62 6 62 C5.95512451 61.2565332 5.91024902 60.51306641 5.86401367 59.74707031 C4.7342601 41.19392421 4.7342601 41.19392421 2.5 22.75 C2.32247192 21.58452637 2.32247192 21.58452637 2.14135742 20.39550781 C1.55314397 16.76333959 0.8250936 13.22925084 -0.1171875 9.671875 C-1.01168365 5.9514043 -0.91845574 3.67382298 0 0 Z " fill="#777486" transform="translate(1056,1373)"/>
<path d="M0 0 C0.66 0.33 1.32 0.66 2 1 C-1.66110696 4.00684069 -5.32876559 7.00553355 -9 10 C-10.37671875 11.12535156 -10.37671875 11.12535156 -11.78125 12.2734375 C-12.6371875 12.96695312 -13.493125 13.66046875 -14.375 14.375 C-15.53128906 15.31472656 -15.53128906 15.31472656 -16.7109375 16.2734375 C-22.97737557 21 -22.97737557 21 -27 21 C-21.11051439 13.45967373 -14.29683858 8.60935476 -6 4 C-3.9730497 2.70239385 -1.98780242 1.3575236 0 0 Z " fill="#B9B7BE" transform="translate(1803,1373)"/>
<path d="M0 0 C-3.00431914 2.00287943 -4.35246794 2.39205774 -7.81640625 2.88671875 C-8.74517578 3.02013672 -9.67394531 3.15355469 -10.63085938 3.29101562 C-12.08202148 3.48727539 -12.08202148 3.48727539 -13.5625 3.6875 C-14.53380859 3.82994141 -15.50511719 3.97238281 -16.50585938 4.11914062 C-23.74061312 5.12969344 -23.74061312 5.12969344 -26 4 C-19.10396152 -1.84595989 -8.56579809 -0.1324608 0 0 Z " fill="#A2A0B1" transform="translate(1249,1538)"/>
<path d="M0 0 C0.66 0.33 1.32 0.66 2 1 C-1.42689055 5.1140535 -5.0964224 6.47746615 -10 8.1875 C-11.06734375 8.57711914 -11.06734375 8.57711914 -12.15625 8.97460938 C-15.40877314 10.1487945 -18.63767954 11.19893831 -22 12 C-22 11.34 -22 10.68 -22 10 C-21.21496094 9.67386719 -20.42992187 9.34773438 -19.62109375 9.01171875 C-16.41289451 7.67726532 -13.20643476 6.33868651 -10 5 C-9.2575 4.69320313 -8.515 4.38640625 -7.75 4.0703125 C-4.93999044 2.89543781 -2.54859129 1.69906086 0 0 Z " fill="#B6B5BE" transform="translate(1722,1413)"/>
<path d="M0 0 C0.66 0.33 1.32 0.66 2 1 C-1.83415445 4.93359938 -5.67061652 8.60669943 -10 12 C-11.35147138 13.31494512 -12.69112542 14.64264858 -14 16 C-14 13 -14 13 -12.71484375 11.46606445 C-12.12832031 10.937146 -11.54179687 10.40822754 -10.9375 9.86328125 C-10.30585938 9.28642578 -9.67421875 8.70957031 -9.0234375 8.11523438 C-8.35570312 7.52033203 -7.68796875 6.92542969 -7 6.3125 C-6.33226562 5.70599609 -5.66453125 5.09949219 -4.9765625 4.47460938 C-3.32416555 2.97564929 -1.66526594 1.48463014 0 0 Z " fill="#CDC8A2" transform="translate(398,360)"/>
<path d="M0 0 C0.33 0.99 0.66 1.98 1 3 C-3.62 7.62 -8.24 12.24 -13 17 C-13.99 16.67 -14.98 16.34 -16 16 C-10.72 10.72 -5.44 5.44 0 0 Z " fill="#A3A2A8" transform="translate(805,450)"/>
<path d="M0 0 C-0.33 0.66 -0.66 1.32 -1 2 C-3.49276275 2.83092092 -5.44523041 3.24635826 -8.01953125 3.53515625 C-8.79490234 3.62216797 -9.57027344 3.70917969 -10.36914062 3.79882812 C-11.57860352 3.9293457 -11.57860352 3.9293457 -12.8125 4.0625 C-13.60720703 4.15337891 -14.40191406 4.24425781 -15.22070312 4.33789062 C-19.5042241 4.80911336 -23.68271884 5.10428215 -28 5 C-25.1495385 3.09969234 -23.99594392 2.65054824 -20.76171875 2.1484375 C-19.94123047 2.01953125 -19.12074219 1.890625 -18.27539062 1.7578125 C-17.42138672 1.63148437 -16.56738281 1.50515625 -15.6875 1.375 C-14.84509766 1.2409375 -14.00269531 1.106875 -13.13476562 0.96875 C-8.71399904 0.29129085 -4.48724336 -0.16104299 0 0 Z " fill="#D3D1D3" transform="translate(788,1178)"/>
<path d="M0 0 C0.66 0.99 1.32 1.98 2 3 C1.68546875 3.47308594 1.3709375 3.94617187 1.046875 4.43359375 C-2.1860931 9.42911373 -4.7236577 14.50625769 -7 20 C-8.41434963 15.7569511 -6.91704758 13.03060535 -5.125 9.0625 C-3.46255479 6.01468379 -1.73491449 3.00718512 0 0 Z " fill="#A09EAE" transform="translate(1148,1579)"/>
<path d="M0 0 C0.66 0.33 1.32 0.66 2 1 C-8.10679612 10 -8.10679612 10 -13 10 C-7.09948835 2.41652454 -7.09948835 2.41652454 -2 1 C-1.34 0.67 -0.68 0.34 0 0 Z " fill="#B0AFB7" transform="translate(1789,1384)"/>
<path d="M0 0 C-2.68790023 3.29292575 -6.24244544 4.64891915 -10.0625 6.25 C-10.69994141 6.53101563 -11.33738281 6.81203125 -11.99414062 7.1015625 C-13.63612867 7.80057532 -15.31661513 8.40758203 -17 9 C-17.66 8.67 -18.32 8.34 -19 8 C-17.10673459 6.87068379 -15.2102736 5.74672384 -13.3125 4.625 C-12.25675781 3.99851562 -11.20101562 3.37203125 -10.11328125 2.7265625 C-2.73289709 -1.36644854 -2.73289709 -1.36644854 0 0 Z " fill="#C7C5C8" transform="translate(750,1274)"/>
<path d="M0 0 C0.99 0.33 1.98 0.66 3 1 C-1.81384901 4.81788025 -7.10647769 4.70067925 -13 5 C-13 4.34 -13 3.68 -13 3 C-9.14275976 1.18482812 -6.23240187 0.90594663 -2 1 C-1.34 0.67 -0.68 0.34 0 0 Z " fill="#A7A5B1" transform="translate(1316,1529)"/>
<path d="M0 0 C0.99 0.99 1.98 1.98 3 3 C2.34 3 1.68 3 1 3 C1.37253906 4.12019531 1.74507812 5.24039062 2.12890625 6.39453125 C2.60723598 7.86703648 3.08507509 9.33970115 3.5625 10.8125 C3.80935547 11.55048828 4.05621094 12.28847656 4.31054688 13.04882812 C6.11328125 18.66015625 6.11328125 18.66015625 5 22 C2.32990481 15.18218413 -0.23063474 8.33159836 -1 1 C-0.67 0.67 -0.34 0.34 0 0 Z " fill="#A0A0A0" transform="translate(149,1121)"/>
<path d="M0 0 C-4.9941902 4.28073445 -9.81158664 5.98516774 -16 8 C-5.33333333 -2.66666667 -5.33333333 -2.66666667 0 0 Z " fill="#B4B2BB" transform="translate(1764,1396)"/>
<path d="M0 0 C-4.62369023 1.80679587 -8.42528653 2.21839082 -13.375 2.125 C-14.62023438 2.10695313 -15.86546875 2.08890625 -17.1484375 2.0703125 C-18.55996094 2.03550781 -18.55996094 2.03550781 -20 2 C-20 1.67 -20 1.34 -20 1 C-17.23142136 0.44329121 -14.46134566 -0.0957942 -11.6875 -0.625 C-10.90181641 -0.78484375 -10.11613281 -0.9446875 -9.30664062 -1.109375 C-8.54931641 -1.25117187 -7.79199219 -1.39296875 -7.01171875 -1.5390625 C-6.31522217 -1.67521973 -5.61872559 -1.81137695 -4.90112305 -1.95166016 C-3 -2 -3 -2 0 0 Z " fill="#ABA9B7" transform="translate(1261,1536)"/>
<path d="M0 0 C2 2 2 2 2 4 C0.71211992 4.53012738 -0.58046678 5.0488329 -1.875 5.5625 C-2.95394531 5.99755859 -2.95394531 5.99755859 -4.0546875 6.44140625 C-6 7 -6 7 -8 6 C-5.51047079 3.33264727 -3.36591866 1.44253657 0 0 Z " fill="#B7B4C0" transform="translate(1687,1425)"/>
<path d="M0 0 C0.52078125 0.23589844 1.0415625 0.47179688 1.578125 0.71484375 C-0.68692465 1.91469172 -2.95777388 3.09979144 -5.234375 4.27734375 C-5.87697266 4.61958984 -6.51957031 4.96183594 -7.18164062 5.31445312 C-8.89113895 6.19134605 -10.65508794 6.95999992 -12.421875 7.71484375 C-13.411875 7.38484375 -14.401875 7.05484375 -15.421875 6.71484375 C-13.34614419 5.51199974 -11.26304405 4.32778674 -9.171875 3.15234375 C-8.29208984 2.63897461 -8.29208984 2.63897461 -7.39453125 2.11523438 C-2.96392641 -0.34897843 -2.96392641 -0.34897843 0 0 Z " fill="#B2B0BA" transform="translate(1746.421875,1404.28515625)"/>
<path d="M0 0 C2.03219488 3.40351338 2.36891039 6.3232927 2.625 10.25 C2.69976563 11.32765625 2.77453125 12.4053125 2.8515625 13.515625 C2.92503906 14.74539063 2.92503906 14.74539063 3 16 C0.16261899 13.16261899 -0.43471017 9.86400644 -1 6 C-0.625 2.5 -0.625 2.5 0 0 Z " fill="#807D90" transform="translate(1056,1373)"/>
<path d="M0 0 C1.23556641 0.01740234 1.23556641 0.01740234 2.49609375 0.03515625 C3.32238281 0.04417969 4.14867187 0.05320312 5 0.0625 C5.63808594 0.07410156 6.27617188 0.08570313 6.93359375 0.09765625 C7.26359375 0.75765625 7.59359375 1.41765625 7.93359375 2.09765625 C5.40883913 3.36003356 3.62158909 3.19622029 0.80859375 3.16015625 C-0.10148438 3.15113281 -1.0115625 3.14210938 -1.94921875 3.1328125 C-2.64789062 3.12121094 -3.3465625 3.10960937 -4.06640625 3.09765625 C-2.57850693 0.12185761 -2.57850693 0.12185761 0 0 Z " fill="#AFACBD" transform="translate(885.06640625,1720.90234375)"/>
<path d="M0 0 C0.66 0.66 1.32 1.32 2 2 C-0.3125 4.0625 -0.3125 4.0625 -3 6 C-3.99 5.67 -4.98 5.34 -6 5 C-6.99 5.495 -6.99 5.495 -8 6 C-7.67 5.01 -7.34 4.02 -7 3 C-3.4375 1.3125 -3.4375 1.3125 0 0 Z " fill="#AAA7BA" transform="translate(1219,1538)"/>
<path d="M0 0 C0 0.99 0 1.98 0 3 C-3.63 3 -7.26 3 -11 3 C-10.67 2.34 -10.34 1.68 -10 1 C-6.63471927 0.46582846 -3.40372484 0 0 0 Z " fill="#A8A6B2" transform="translate(1302,1531)"/>
<path d="M0 0 C0.99 0.99 1.98 1.98 3 3 C2.34 3 1.68 3 1 3 C1.33 5.64 1.66 8.28 2 11 C0.11772118 7.73738338 -0.58481145 4.73669693 -1 1 C-0.67 0.67 -0.34 0.34 0 0 Z " fill="#8E8E8E" transform="translate(149,1121)"/>
<path d="M0 0 C0.66 0.33 1.32 0.66 2 1 C1.34 3.64 0.68 6.28 0 9 C-0.33 8.34 -0.66 7.68 -1 7 C-1.66 7 -2.32 7 -3 7 C-1.125 1.125 -1.125 1.125 0 0 Z " fill="#474749" transform="translate(217,590)"/>
<path d="M0 0 C0.66 0.33 1.32 0.66 2 1 C-0.31 3.31 -2.62 5.62 -5 8 C-5.33 7.01 -5.66 6.02 -6 5 C-4.02 3.35 -2.04 1.7 0 0 Z " fill="#B4B196" transform="translate(647,367)"/>
<path d="M0 0 C-2.39509338 2.89932357 -4.31245243 3.50168276 -8 4 C-7 1 -7 1 -4.5625 -0.25 C-2 -1 -2 -1 0 0 Z " fill="#D6D5D7" transform="translate(750,1274)"/>
</svg>
